<?xml version="1.0" encoding="UTF-8" standalone="no"?><!DOCTYPE svg PUBLIC "-//W3C//DTD SVG 1.1//EN" "http://www.w3.org/Graphics/SVG/1.1/DTD/svg11.dtd"><svg width="100%" height="100%" viewBox="0 0 542 209" version="1.1" xmlns="http://www.w3.org/2000/svg" xmlns:xlink="http://www.w3.org/1999/xlink" xml:space="preserve" xmlns:serif="http://www.serif.com/" style="fill-rule:evenodd;clip-rule:evenodd;stroke-linejoin:round;stroke-miterlimit:2;"><g id="Layer-2" serif:id="Layer 2"></g><g id="Layer-1" serif:id="Layer 1"><path d="M230.124,34.641c-2.568,2.659 -3.852,5.954 -3.852,9.872c0,3.913 1.284,7.207 3.852,9.872c2.562,2.665 5.717,3.997 9.472,3.997c3.797,0 6.971,-1.332 9.515,-3.997c2.544,-2.665 3.816,-5.96 3.816,-9.872c0,-3.919 -1.272,-7.213 -3.816,-9.872c-2.544,-2.665 -5.717,-3.997 -9.515,-3.997c-3.755,0 -6.911,1.332 -9.472,3.997m-6.396,25.371c-4.276,-4.191 -6.414,-9.357 -6.414,-15.499c0,-6.141 2.138,-11.302 6.414,-15.505c4.282,-4.197 9.569,-6.299 15.868,-6.299c6.299,0 11.592,2.102 15.874,6.299c4.282,4.203 6.42,9.363 6.42,15.505c0,6.141 -2.138,11.308 -6.42,15.499c-4.282,4.209 -9.575,6.299 -15.874,6.299c-6.299,0 -11.586,-2.09 -15.868,-6.299" style="fill:#fff;fill-rule:nonzero;"/><path d="M277.636,56.354c1.575,1.672 3.531,2.513 5.875,2.513c2.338,0 4.3,-0.842 5.875,-2.513c1.575,-1.672 2.362,-3.767 2.362,-6.269c0,-2.501 -0.787,-4.585 -2.362,-6.238c-1.575,-1.653 -3.537,-2.483 -5.875,-2.483c-2.344,0 -4.3,0.836 -5.875,2.507c-1.575,1.684 -2.362,3.755 -2.362,6.214c0,2.501 0.787,4.597 2.362,6.269m7.571,-22.5c4.276,0 7.855,1.557 10.72,4.664c2.865,3.107 4.294,6.965 4.294,11.568c0,4.603 -1.429,8.455 -4.294,11.568c-2.865,3.113 -6.444,4.664 -10.72,4.664c-3.997,0 -7.31,-1.435 -9.933,-4.3l0,3.694l-8.176,0l0,-44.818l8.176,0l0,17.261c2.622,-2.871 5.935,-4.3 9.933,-4.3" style="fill:#fff;fill-rule:nonzero;"/><path d="M331.902,20.955l-6.844,9.69l-9.145,0l-6.844,-9.69l7.631,0l3.816,4.718l3.755,-4.718l7.631,0Zm-11.447,37.914c1.653,0 3.149,-0.442 4.482,-1.332c1.332,-0.884 2.338,-2.138 3.028,-3.755l7.51,2.604c-1.332,3.149 -3.331,5.59 -5.996,7.328c-2.665,1.738 -5.675,2.598 -9.024,2.598c-4.767,0 -8.74,-1.55 -11.931,-4.657c-3.192,-3.113 -4.785,-6.971 -4.785,-11.568c0,-4.603 1.593,-8.461 4.785,-11.574c3.192,-3.101 7.165,-4.657 11.931,-4.657c3.349,0 6.359,0.866 9.024,2.604c2.665,1.738 4.664,4.179 5.996,7.328l-7.51,2.598c-0.69,-1.611 -1.696,-2.847 -3.028,-3.719c-1.332,-0.872 -2.828,-1.302 -4.482,-1.302c-2.338,0 -4.3,0.836 -5.875,2.507c-1.575,1.684 -2.362,3.749 -2.362,6.214c0,2.501 0.787,4.591 2.362,6.269c1.575,1.672 3.537,2.513 5.875,2.513" style="fill:#fff;fill-rule:nonzero;"/><path d="M350.344,59.838c2.144,0 3.985,-0.727 5.542,-2.18c1.55,-1.46 2.332,-3.131 2.332,-5.027l0,-0.666c-0.406,0.321 -1.332,0.587 -2.786,0.787l-5.269,0.606c-1.175,0.157 -2.102,0.539 -2.786,1.114c-0.69,0.594 -1.03,1.326 -1.03,2.211c0,0.933 0.357,1.69 1.09,2.271c0.727,0.587 1.696,0.884 2.907,0.884m2.725,-25.983c3.961,0 7.165,1.03 9.63,3.089c2.459,2.059 3.688,5.069 3.688,9.024l0,19.744l-8.17,0l0,-3.816c-2.465,2.943 -5.754,4.415 -9.872,4.415c-2.95,0 -5.384,-0.812 -7.298,-2.447c-1.92,-1.635 -2.877,-3.81 -2.877,-6.511c0,-5.857 4.015,-9.212 12.046,-10.054l5.088,-0.485c1.944,-0.121 2.913,-0.951 2.913,-2.489c0,-1.127 -0.472,-2.029 -1.429,-2.725c-0.945,-0.684 -2.168,-1.03 -3.658,-1.03c-1.617,0 -2.937,0.418 -3.967,1.242c-1.03,0.83 -1.69,1.999 -1.974,3.489l-8.11,-1.817c0.442,-2.786 1.914,-5.088 4.421,-6.904c2.501,-1.823 5.693,-2.725 9.569,-2.725" style="fill:#fff;fill-rule:nonzero;"/><path d="M390.498,33.855c3.713,0 6.741,1.211 9.085,3.634c2.344,2.423 3.513,5.511 3.513,9.267l0,18.957l-8.182,0l0,-17.503c0,-2.023 -0.654,-3.67 -1.968,-4.966c-1.308,-1.29 -3.016,-1.944 -5.112,-1.944c-2.059,0 -3.761,0.654 -5.088,1.944c-1.332,1.296 -1.999,2.943 -1.999,4.966l0,17.503l-8.176,0l0,-31.252l8.176,0l0,4.058c2.38,-3.107 5.627,-4.664 9.751,-4.664" style="fill:#fff;fill-rule:nonzero;"/><path d="M407.514,57.295l8.176,-1.696c0.363,2.828 2.223,4.24 5.572,4.24c1.653,0 2.992,-0.315 3.997,-0.939c1.011,-0.63 1.514,-1.405 1.514,-2.332c0,-0.89 -0.454,-1.599 -1.363,-2.126c-0.908,-0.521 -2.041,-0.86 -3.392,-1.03c-1.351,-0.157 -2.822,-0.418 -4.421,-0.787c-1.599,-0.357 -3.071,-0.799 -4.421,-1.326c-1.351,-0.527 -2.483,-1.435 -3.392,-2.725c-0.908,-1.29 -1.363,-2.907 -1.363,-4.845c0,-2.828 1.223,-5.184 3.664,-7.056c2.441,-1.884 5.499,-2.816 9.176,-2.816c3.676,0 6.705,0.818 9.085,2.447c2.38,1.641 3.791,3.828 4.24,6.577l-8.116,1.69c-0.406,-2.822 -2.144,-4.24 -5.209,-4.24c-1.332,0 -2.435,0.285 -3.301,0.854c-0.866,0.563 -1.302,1.29 -1.302,2.174c0,0.939 0.454,1.659 1.363,2.186c0.908,0.521 2.035,0.866 3.392,1.024c1.357,0.17 2.828,0.442 4.421,0.818c1.593,0.388 3.065,0.842 4.421,1.369c1.357,0.527 2.483,1.441 3.392,2.756c0.908,1.314 1.363,2.956 1.363,4.93c0,2.786 -1.332,5.13 -3.997,7.032c-2.665,1.896 -5.917,2.841 -9.751,2.841c-3.834,0 -6.977,-0.818 -9.418,-2.447c-2.441,-1.641 -3.888,-3.828 -4.33,-6.571" style="fill:#fff;fill-rule:nonzero;"/><path d="M457.309,47.659l14.051,18.049l-10.296,0l-9.327,-11.925l-3.931,4.3l0,7.625l-8.182,0l0,-44.818l8.182,0l0,26.291l11.199,-12.725l10.296,0l-11.992,13.203Z" style="fill:#fff;fill-rule:nonzero;"/><path d="M488.379,20.955l9.085,0l-7.328,9.69l-8.116,0l6.359,-9.69Zm-1.09,19.926c-1.811,0 -3.44,0.533 -4.869,1.605c-1.441,1.066 -2.441,2.495 -2.998,4.27l15.802,0c-0.563,-1.775 -1.55,-3.204 -2.962,-4.27c-1.417,-1.072 -3.071,-1.605 -4.972,-1.605m0,-7.026c5.251,0 9.46,1.884 12.628,5.657c3.174,3.779 4.33,8.273 3.483,13.482l-24.105,0c0.569,1.902 1.611,3.416 3.125,4.573c1.514,1.145 3.313,1.726 5.415,1.726c3.555,0 6.141,-1.454 7.752,-4.367l6.723,3.028c-1.417,2.544 -3.404,4.573 -5.966,6.087c-2.562,1.514 -5.481,2.271 -8.752,2.271c-4.76,0 -8.74,-1.55 -11.931,-4.657c-3.186,-3.113 -4.785,-6.971 -4.785,-11.568c0,-4.603 1.575,-8.461 4.73,-11.574c3.143,-3.101 7.044,-4.657 11.683,-4.657" style="fill:#fff;fill-rule:nonzero;"/><path d="M217.857,115.074l8.782,-1.756c0.321,1.932 1.187,3.44 2.574,4.512c1.393,1.066 3.24,1.605 5.542,1.605c2.059,0 3.743,-0.472 5.057,-1.429c1.314,-0.945 1.968,-2.126 1.968,-3.543c0,-1.084 -0.424,-2.005 -1.272,-2.756c-0.848,-0.745 -1.95,-1.338 -3.301,-1.787c-1.351,-0.442 -2.834,-0.866 -4.452,-1.272c-1.617,-0.4 -3.24,-0.902 -4.876,-1.514c-1.635,-0.6 -3.125,-1.326 -4.482,-2.174c-1.357,-0.854 -2.453,-2.053 -3.301,-3.61c-0.848,-1.544 -1.272,-3.398 -1.272,-5.542c0,-3.549 1.502,-6.529 4.512,-8.927c3.004,-2.404 6.692,-3.604 11.053,-3.604c4.403,0 8.037,1.09 10.902,3.271c2.865,2.174 4.561,5.021 5.088,8.534l-8.782,1.756c-0.327,-1.853 -1.145,-3.337 -2.453,-4.446c-1.308,-1.114 -2.992,-1.672 -5.057,-1.672c-1.859,0 -3.373,0.442 -4.542,1.302c-1.175,0.872 -1.756,1.974 -1.756,3.301c0,1.054 0.424,1.932 1.272,2.641c0.848,0.703 1.95,1.272 3.307,1.696c1.345,0.418 2.828,0.836 4.446,1.236c1.611,0.412 3.24,0.927 4.882,1.55c1.629,0.624 3.119,1.381 4.476,2.271c1.351,0.89 2.453,2.138 3.301,3.749c0.848,1.623 1.272,3.537 1.272,5.754c0,3.598 -1.563,6.602 -4.694,9.03c-3.125,2.423 -6.977,3.628 -11.538,3.628c-4.561,0 -8.34,-1.066 -11.326,-3.204c-2.986,-2.144 -4.76,-5.009 -5.33,-8.6" style="fill:#fff;fill-rule:nonzero;"/><path d="M264.913,116.92c1.581,1.672 3.537,2.513 5.881,2.513c2.332,0 4.3,-0.842 5.869,-2.513c1.575,-1.672 2.362,-3.767 2.362,-6.269c0,-2.501 -0.787,-4.585 -2.362,-6.238c-1.569,-1.653 -3.537,-2.483 -5.869,-2.483c-2.344,0 -4.3,0.836 -5.881,2.507c-1.575,1.684 -2.362,3.755 -2.362,6.214c0,2.501 0.787,4.597 2.362,6.269m14.112,-18.2l0,-17.261l8.182,0l0,44.818l-8.182,0l0,-3.694c-2.629,2.865 -5.929,4.3 -9.933,4.3c-4.282,0 -7.849,-1.55 -10.72,-4.664c-2.865,-3.113 -4.3,-6.965 -4.3,-11.568c0,-4.603 1.435,-8.461 4.3,-11.568c2.871,-3.107 6.438,-4.664 10.72,-4.664c4.003,0 7.304,1.429 9.933,4.3" style="fill:#fff;fill-rule:nonzero;"/><path d="M301.802,95.024l0,4.058c1.375,-1.902 3.107,-3.24 5.203,-4.028c2.102,-0.787 4.258,-0.836 6.487,-0.151l0,7.752c-3.271,-1.133 -6.038,-1.078 -8.297,0.151c-2.259,1.229 -3.392,3.216 -3.392,5.972l0,17.497l-8.182,0l0,-31.252l8.182,0Z" style="fill:#fff;fill-rule:nonzero;"/><path d="M316.95,113.075l0,-18.049l8.176,0l0,18.049c0,1.896 0.6,3.428 1.811,4.603c1.217,1.169 2.768,1.756 4.67,1.756c1.89,0 3.446,-0.587 4.657,-1.756c1.217,-1.175 1.817,-2.707 1.817,-4.603l0,-18.049l8.182,0l0,18.049c0,4.076 -1.375,7.401 -4.125,9.963c-2.744,2.562 -6.256,3.84 -10.532,3.84c-4.282,0 -7.795,-1.278 -10.538,-3.84c-2.744,-2.562 -4.118,-5.887 -4.118,-9.963" style="fill:#fff;fill-rule:nonzero;"/><path d="M375.995,81.521l-6.844,9.69l-9.145,0l-6.844,-9.69l7.631,0l3.816,4.718l3.755,-4.718l7.631,0Zm-24.529,13.5l26.285,0l0,6.729l-15.802,17.316l15.802,0l0,7.213l-26.285,0l0,-6.662l15.814,-17.382l-15.814,0l0,-7.213Z" style="fill:#fff;fill-rule:nonzero;"/><path d="M397.738,101.447c-1.817,0 -3.44,0.533 -4.876,1.605c-1.429,1.066 -2.429,2.495 -2.998,4.27l15.814,0c-0.569,-1.775 -1.557,-3.204 -2.974,-4.27c-1.411,-1.072 -3.071,-1.605 -4.966,-1.605m0,-7.026c5.251,0 9.46,1.884 12.628,5.657c3.168,3.779 4.336,8.273 3.483,13.482l-24.099,0c0.557,1.896 1.599,3.416 3.113,4.573c1.514,1.145 3.325,1.726 5.427,1.726c3.549,0 6.135,-1.454 7.746,-4.367l6.723,3.028c-1.411,2.544 -3.398,4.573 -5.966,6.087c-2.562,1.514 -5.475,2.271 -8.746,2.271c-4.767,0 -8.746,-1.55 -11.937,-4.657c-3.186,-3.113 -4.785,-6.971 -4.785,-11.568c0,-4.603 1.581,-8.461 4.724,-11.574c3.155,-3.101 7.044,-4.657 11.689,-4.657" style="fill:#fff;fill-rule:nonzero;"/><path d="M435.898,94.421c3.713,0 6.741,1.211 9.085,3.634c2.344,2.423 3.513,5.511 3.513,9.267l0,18.957l-8.182,0l0,-17.503c0,-2.023 -0.654,-3.67 -1.968,-4.966c-1.308,-1.29 -3.016,-1.944 -5.112,-1.944c-2.059,0 -3.761,0.654 -5.088,1.944c-1.332,1.296 -1.999,2.943 -1.999,4.966l0,17.503l-8.176,0l0,-31.252l8.176,0l0,4.058c2.38,-3.107 5.627,-4.664 9.751,-4.664" style="fill:#fff;fill-rule:nonzero;"/><path d="M462.97,126.279l-8.182,0l0,-31.252l8.182,0l0,31.252Zm-1.272,-35.067l-8.122,0l6.365,-9.69l9.085,0l-7.328,9.69Z" style="fill:#fff;fill-rule:nonzero;"/><path d="M237.239,154.075l-6.299,15.868l12.598,0l-6.299,-15.868Zm22.228,32.766l-9.267,0l-3.634,-9.2l-18.654,0l-3.634,9.2l-8.782,0l17.201,-42.396l9.569,0l17.201,42.396Z" style="fill:#fff;fill-rule:nonzero;"/><rect x="262.916" y="142.026" width="8.176" height="44.818" style="fill:#fff;"/><path d="M281.451,162.799l-6.299,0l0,-7.207l6.299,0l0,-9.206l8.176,-2.544l0,11.75l8.116,0l0,7.207l-8.116,0l0,12.416c0,2.943 1.478,4.415 4.421,4.415l3.694,0l0,7.213l-3.694,0c-4.282,0 -7.45,-0.999 -9.509,-2.998c-2.059,-1.999 -3.089,-5.033 -3.089,-9.115l0,-11.931Z" style="fill:#fff;fill-rule:nonzero;"/><path d="M317.666,162.012c-1.817,0 -3.44,0.533 -4.876,1.605c-1.429,1.066 -2.429,2.495 -2.998,4.27l15.814,0c-0.569,-1.775 -1.557,-3.204 -2.974,-4.27c-1.411,-1.072 -3.071,-1.605 -4.966,-1.605m0,-7.026c5.251,0 9.46,1.884 12.628,5.657c3.168,3.779 4.336,8.273 3.483,13.482l-24.099,0c0.557,1.896 1.599,3.416 3.113,4.573c1.514,1.145 3.325,1.726 5.427,1.726c3.549,0 6.135,-1.454 7.746,-4.367l6.723,3.028c-1.411,2.544 -3.398,4.573 -5.966,6.087c-2.562,1.514 -5.475,2.271 -8.746,2.271c-4.767,0 -8.746,-1.55 -11.937,-4.657c-3.186,-3.113 -4.785,-6.971 -4.785,-11.568c0,-4.603 1.581,-8.461 4.724,-11.574c3.155,-3.101 7.044,-4.657 11.689,-4.657" style="fill:#fff;fill-rule:nonzero;"/><path d="M346.984,155.59l0,4.058c1.375,-1.902 3.107,-3.24 5.203,-4.028c2.102,-0.787 4.258,-0.836 6.487,-0.151l0,7.752c-3.271,-1.133 -6.038,-1.078 -8.297,0.151c-2.259,1.229 -3.392,3.216 -3.392,5.972l0,17.497l-8.182,0l0,-31.252l8.182,0Z" style="fill:#fff;fill-rule:nonzero;"/><path d="M380.715,154.986c3.713,0 6.741,1.211 9.085,3.634c2.344,2.423 3.513,5.511 3.513,9.267l0,18.957l-8.182,0l0,-17.503c0,-2.023 -0.654,-3.67 -1.968,-4.966c-1.308,-1.29 -3.016,-1.944 -5.112,-1.944c-2.059,0 -3.761,0.654 -5.088,1.944c-1.332,1.296 -1.999,2.943 -1.999,4.966l0,17.503l-8.176,0l0,-31.252l8.176,0l0,4.058c2.38,-3.107 5.627,-4.664 9.751,-4.664" style="fill:#fff;fill-rule:nonzero;"/><path d="M409.845,180.969c2.144,0 3.985,-0.727 5.542,-2.18c1.557,-1.46 2.332,-3.131 2.332,-5.027l0,-0.666c-0.406,0.321 -1.332,0.587 -2.786,0.787l-5.263,0.606c-1.181,0.157 -2.108,0.539 -2.792,1.114c-0.69,0.594 -1.03,1.326 -1.03,2.211c0,0.933 0.363,1.69 1.096,2.271c0.727,0.587 1.69,0.884 2.901,0.884m2.725,-25.983c3.961,0 7.171,1.03 9.63,3.089c2.465,2.059 3.694,5.069 3.694,9.024l0,19.744l-8.176,0l0,-3.816c-2.459,2.943 -5.748,4.415 -9.872,4.415c-2.943,0 -5.378,-0.812 -7.298,-2.447c-1.92,-1.635 -2.877,-3.81 -2.877,-6.511c0,-5.857 4.015,-9.212 12.053,-10.054l5.088,-0.485c1.944,-0.121 2.907,-0.951 2.907,-2.489c0,-1.127 -0.472,-2.029 -1.423,-2.725c-0.951,-0.684 -2.168,-1.03 -3.664,-1.03c-1.617,0 -2.931,0.418 -3.961,1.242c-1.036,0.83 -1.696,1.999 -1.974,3.489l-8.11,-1.817c0.442,-2.786 1.914,-5.088 4.415,-6.904c2.501,-1.823 5.699,-2.725 9.569,-2.725" style="fill:#fff;fill-rule:nonzero;"/><path d="M435.1,162.799l-6.299,0l0,-7.207l6.299,0l0,-9.206l8.176,-2.544l0,11.75l8.116,0l0,7.207l-8.116,0l0,12.416c0,2.943 1.478,4.415 4.421,4.415l3.694,0l0,7.213l-3.694,0c-4.282,0 -7.45,-0.999 -9.509,-2.998c-2.059,-1.999 -3.089,-5.033 -3.089,-9.115l0,-11.931Z" style="fill:#fff;fill-rule:nonzero;"/><path d="M464.781,186.844l-8.182,0l0,-31.252l8.182,0l0,31.252Zm-9.024,-39.913c0,-1.375 0.485,-2.532 1.454,-3.483c0.963,-0.951 2.132,-1.429 3.513,-1.429c1.332,0 2.477,0.478 3.446,1.429c0.969,0.951 1.454,2.108 1.454,3.483c0,1.326 -0.485,2.483 -1.454,3.452c-0.969,0.963 -2.114,1.448 -3.446,1.448c-1.381,0 -2.55,-0.485 -3.513,-1.448c-0.969,-0.969 -1.454,-2.126 -1.454,-3.452" style="fill:#fff;fill-rule:nonzero;"/><path d="M484.824,178.603l8.425,-23.015l8.231,0l-12.355,31.252l-9.206,0l-12.355,-31.252l8.843,0l8.419,23.015Z" style="fill:#fff;fill-rule:nonzero;"/><path d="M514.196,180.969c2.144,0 3.985,-0.727 5.542,-2.18c1.557,-1.46 2.332,-3.131 2.332,-5.027l0,-0.666c-0.406,0.321 -1.332,0.587 -2.786,0.787l-5.263,0.606c-1.181,0.157 -2.108,0.539 -2.792,1.114c-0.69,0.594 -1.03,1.326 -1.03,2.211c0,0.933 0.363,1.69 1.096,2.271c0.727,0.587 1.69,0.884 2.901,0.884m2.725,-25.983c3.961,0 7.171,1.03 9.63,3.089c2.465,2.059 3.694,5.069 3.694,9.024l0,19.744l-8.176,0l0,-3.816c-2.459,2.943 -5.748,4.415 -9.872,4.415c-2.943,0 -5.378,-0.812 -7.298,-2.447c-1.92,-1.635 -2.877,-3.81 -2.877,-6.511c0,-5.857 4.015,-9.212 12.053,-10.054l5.088,-0.485c1.944,-0.121 2.907,-0.951 2.907,-2.489c0,-1.127 -0.472,-2.029 -1.423,-2.725c-0.951,-0.684 -2.168,-1.03 -3.664,-1.03c-1.617,0 -2.931,0.418 -3.961,1.242c-1.036,0.83 -1.696,1.999 -1.974,3.489l-8.11,-1.817c0.442,-2.786 1.914,-5.088 4.415,-6.904c2.501,-1.823 5.699,-2.725 9.569,-2.725" style="fill:#fff;fill-rule:nonzero;"/><path d="M200.258,65.715l0,-42.396l-94.41,0l-94.416,163.527l49.234,0l69.784,-120.907l69.808,-0.224Z" style="fill:#fff;fill-rule:nonzero;"/><path d="M165.37,126.384l34.886,-0.103l0,-42.396l-59.312,0.194l-59.318,102.768l48.822,0l34.922,-60.463Z" style="fill:#fff;fill-rule:nonzero;"/><path d="M200.258,144.37l-24.456,0.079l-24.481,42.396l48.937,0l0,-42.475Z" style="fill:#fff;fill-rule:nonzero;"/></g></svg>