<?xml version="1.0" encoding="UTF-8" standalone="no"?><!DOCTYPE svg PUBLIC "-//W3C//DTD SVG 1.1//EN" "http://www.w3.org/Graphics/SVG/1.1/DTD/svg11.dtd"><svg width="100%" height="100%" viewBox="0 0 8000 5334" version="1.1" xmlns="http://www.w3.org/2000/svg" xmlns:xlink="http://www.w3.org/1999/xlink" xml:space="preserve" xmlns:serif="http://www.serif.com/" style="fill-rule:evenodd;clip-rule:evenodd;stroke-linejoin:round;stroke-miterlimit:2;"><g><path d="M1099.332,876.419l117.804,0l-1860.731,-1895.189l-117.804,0l1860.731,1895.189Z" style="fill:#989797;fill-rule:nonzero;"/><path d="M-431.975,-1018.77l-117.804,0l1860.731,1895.189l117.804,0l-1860.731,-1895.189Z" style="fill:#989797;fill-rule:nonzero;"/><path d="M-220.353,-1018.77l-117.806,0l1860.731,1895.189l117.804,0l-1860.728,-1895.189Z" style="fill:#989797;fill-rule:nonzero;"/><path d="M-8.733,-1018.77l-117.806,0l1860.731,1895.189l117.804,0l-1860.728,-1895.189Z" style="fill:#989797;fill-rule:nonzero;"/><path d="M202.885,-1018.77l-117.804,0l1860.731,1895.189l117.806,0l-1860.733,-1895.189Z" style="fill:#989797;fill-rule:nonzero;"/><path d="M414.505,-1018.77l-117.804,0l1860.731,1895.189l117.806,0l-1860.733,-1895.189Z" style="fill:#989797;fill-rule:nonzero;"/><path d="M2369.052,876.419l117.806,0l-1860.731,-1895.189l-117.806,0l1860.731,1895.189Z" style="fill:#989797;fill-rule:nonzero;"/><path d="M1099.563,2562.231l117.804,0l-1860.731,-1895.189l-117.804,0l1860.731,1895.189Z" style="fill:#989797;fill-rule:nonzero;"/><path d="M-431.742,667.043l-117.806,0l1860.731,1895.189l117.804,0l-1860.728,-1895.189Z" style="fill:#989797;fill-rule:nonzero;"/><path d="M-220.122,667.043l-117.806,0l1860.731,1895.189l117.806,0l-1860.731,-1895.189Z" style="fill:#989797;fill-rule:nonzero;"/><path d="M-8.502,667.043l-117.806,0l1860.731,1895.189l117.806,0l-1860.731,-1895.189Z" style="fill:#989797;fill-rule:nonzero;"/><path d="M203.118,667.043l-117.806,0l1860.731,1895.189l117.806,0l-1860.731,-1895.189Z" style="fill:#989797;fill-rule:nonzero;"/><path d="M414.738,667.043l-117.806,0l1860.731,1895.189l117.806,0l-1860.731,-1895.189Z" style="fill:#989797;fill-rule:nonzero;"/><path d="M2369.282,2562.231l117.806,0l-1860.731,-1895.189l-117.804,0l1860.728,1895.189Z" style="fill:#989797;fill-rule:nonzero;"/><path d="M857.521,2415.94l-349.201,355.667l117.804,0l290.299,-295.673l-58.902,-59.994Z" style="fill:#d4d3d4;fill-rule:nonzero;"/><path d="M1646.96,1611.882l58.902,59.994l780.996,-795.458l-117.806,0l-722.092,735.464Z" style="fill:#d4d3d4;fill-rule:nonzero;"/><path d="M810.612,2368.165l-58.902,-59.993l-455.009,463.435l117.804,0l396.107,-403.443Z" style="fill:#d4d3d4;fill-rule:nonzero;"/><path d="M2157.432,876.419l-616.281,627.694l58.902,59.994l675.185,-687.688l-117.806,0Z" style="fill:#d4d3d4;fill-rule:nonzero;"/><path d="M704.803,2260.395l-58.904,-59.994l-560.818,571.206l117.804,0l501.918,-511.212Z" style="fill:#d4d3d4;fill-rule:nonzero;"/><path d="M1435.34,1396.344l58.902,59.993l569.376,-579.918l-117.806,0l-510.472,519.925Z" style="fill:#d4d3d4;fill-rule:nonzero;"/><path d="M598.992,2152.626l-58.902,-59.994l-666.629,678.975l117.806,0l607.725,-618.982Z" style="fill:#d4d3d4;fill-rule:nonzero;"/><path d="M1329.531,1288.574l58.902,59.994l463.563,-472.149l-117.804,0l-404.661,412.156Z" style="fill:#d4d3d4;fill-rule:nonzero;"/><path d="M1223.72,1180.804l58.902,59.994l357.754,-364.379l-117.804,0l-298.852,304.385Z" style="fill:#d4d3d4;fill-rule:nonzero;"/><path d="M493.183,2044.856l-58.904,-59.994l-772.438,786.745l117.806,0l713.536,-726.751Z" style="fill:#d4d3d4;fill-rule:nonzero;"/><path d="M1117.911,1073.034l58.902,59.994l251.943,-256.609l-117.804,0l-193.041,196.616Z" style="fill:#d4d3d4;fill-rule:nonzero;"/><path d="M-549.779,2771.607l117.804,0l819.347,-834.52l-58.902,-59.994l-878.249,894.514Z" style="fill:#d4d3d4;fill-rule:nonzero;"/><path d="M-718.535,2771.607l74.94,0l925.158,-942.291l-58.904,-59.992l-984.058,1002.29l42.864,-0.008Z" style="fill:#d4d3d4;fill-rule:nonzero;"/><path d="M1012.1,965.265l58.902,59.994l146.134,-148.84l-117.804,0l-87.232,88.846Z" style="fill:#d4d3d4;fill-rule:nonzero;"/><path d="M78.728,-68.429l-58.902,-59.994l-780.994,795.458l117.804,0l722.092,-735.464Z" style="fill:#7a7878;fill-rule:nonzero;"/><path d="M-431.742,667.035l616.281,-627.694l-58.902,-59.993l-675.185,687.687l117.806,0Z" style="fill:#7a7878;fill-rule:nonzero;"/><path d="M290.347,147.11l-58.902,-59.993l-569.374,579.918l117.806,0l510.47,-519.925Z" style="fill:#7a7878;fill-rule:nonzero;"/><path d="M396.159,254.879l-58.902,-59.993l-463.565,472.148l117.806,0l404.661,-412.156Z" style="fill:#7a7878;fill-rule:nonzero;"/><path d="M501.967,362.65l-58.9,-59.994l-357.756,364.379l117.806,0l298.85,-304.385Z" style="fill:#7a7878;fill-rule:nonzero;"/><path d="M607.778,470.419l-58.902,-59.994l-251.945,256.609l117.806,0l193.041,-196.616Z" style="fill:#7a7878;fill-rule:nonzero;"/><path d="M713.59,578.189l-58.904,-59.994l-146.132,148.84l117.804,0l87.232,-88.846Z" style="fill:#7a7878;fill-rule:nonzero;"/><path d="M7373.64,876.419l117.806,0l-1860.731,-1895.189l-117.806,0l1860.731,1895.189Z" style="fill:#989797;fill-rule:nonzero;"/><path d="M5842.336,-1018.77l-117.804,0l1860.728,1895.189l117.806,0l-1860.731,-1895.189Z" style="fill:#989797;fill-rule:nonzero;"/><path d="M6053.956,-1018.77l-117.806,0l1860.731,1895.189l117.806,0l-1860.731,-1895.189Z" style="fill:#989797;fill-rule:nonzero;"/><path d="M6265.575,-1018.77l-117.804,0l1860.728,1895.189l117.806,0l-1860.731,-1895.189Z" style="fill:#989797;fill-rule:nonzero;"/><path d="M6477.195,-1018.77l-117.804,0l1860.731,1895.189l117.804,0l-1860.731,-1895.189Z" style="fill:#989797;fill-rule:nonzero;"/><path d="M6688.815,-1018.77l-117.804,0l1860.731,1895.189l117.804,0l-1860.731,-1895.189Z" style="fill:#989797;fill-rule:nonzero;"/><path d="M8643.362,876.419l117.804,0l-1860.731,-1895.189l-117.804,0l1860.731,1895.189Z" style="fill:#989797;fill-rule:nonzero;"/><path d="M7373.871,2562.231l117.806,0l-1860.731,-1895.189l-117.804,0l1860.728,1895.189Z" style="fill:#989797;fill-rule:nonzero;"/><path d="M5842.566,667.043l-117.804,0l1860.728,1895.189l117.806,0l-1860.731,-1895.189Z" style="fill:#989797;fill-rule:nonzero;"/><path d="M6054.186,667.043l-117.804,0l1860.731,1895.189l117.804,0l-1860.731,-1895.189Z" style="fill:#989797;fill-rule:nonzero;"/><path d="M6265.806,667.043l-117.804,0l1860.731,1895.189l117.804,0l-1860.731,-1895.189Z" style="fill:#989797;fill-rule:nonzero;"/><path d="M6477.426,667.043l-117.804,0l1860.731,1895.189l117.804,0l-1860.731,-1895.189Z" style="fill:#989797;fill-rule:nonzero;"/><path d="M6689.046,667.043l-117.804,0l1860.731,1895.189l117.804,0l-1860.731,-1895.189Z" style="fill:#989797;fill-rule:nonzero;"/><path d="M8643.593,2562.231l117.806,0l-1860.731,-1895.189l-117.806,0l1860.731,1895.189Z" style="fill:#989797;fill-rule:nonzero;"/><path d="M7131.83,2415.94l-349.198,355.667l117.804,0l290.296,-295.673l-58.902,-59.994Z" style="fill:#d4d3d4;fill-rule:nonzero;"/><path d="M7921.27,1611.882l58.902,59.994l780.994,-795.458l-117.804,0l-722.092,735.464Z" style="fill:#d4d3d4;fill-rule:nonzero;"/><path d="M7084.923,2368.165l-58.902,-59.993l-455.009,463.435l117.804,0l396.107,-403.443Z" style="fill:#d4d3d4;fill-rule:nonzero;"/><path d="M8431.742,876.419l-616.283,627.694l58.902,59.994l675.185,-687.688l-117.804,0Z" style="fill:#d4d3d4;fill-rule:nonzero;"/><path d="M6979.114,2260.395l-58.904,-59.994l-560.818,571.206l117.804,0l501.918,-511.212Z" style="fill:#d4d3d4;fill-rule:nonzero;"/><path d="M7709.648,1396.344l58.904,59.993l569.374,-579.918l-117.804,0l-510.474,519.925Z" style="fill:#d4d3d4;fill-rule:nonzero;"/><path d="M6873.303,2152.626l-58.902,-59.994l-666.629,678.975l117.804,0l607.727,-618.982Z" style="fill:#d4d3d4;fill-rule:nonzero;"/><path d="M7603.839,1288.574l58.902,59.994l463.565,-472.149l-117.806,0l-404.661,412.156Z" style="fill:#d4d3d4;fill-rule:nonzero;"/><path d="M7498.028,1180.804l58.904,59.994l357.754,-364.379l-117.806,0l-298.852,304.385Z" style="fill:#d4d3d4;fill-rule:nonzero;"/><path d="M6767.492,2044.856l-58.902,-59.994l-772.44,786.745l117.806,0l713.536,-726.751Z" style="fill:#d4d3d4;fill-rule:nonzero;"/><path d="M7392.219,1073.034l58.902,59.994l251.945,-256.609l-117.806,0l-193.041,196.616Z" style="fill:#d4d3d4;fill-rule:nonzero;"/><path d="M5724.529,2771.607l117.806,0l819.347,-834.52l-58.904,-59.994l-878.249,894.514Z" style="fill:#d4d3d4;fill-rule:nonzero;"/><path d="M5555.774,2771.607l74.942,0l925.156,-942.291l-58.902,-59.992l-984.06,1002.29l42.864,-0.008Z" style="fill:#d4d3d4;fill-rule:nonzero;"/><path d="M7286.408,965.265l58.904,59.994l146.134,-148.84l-117.806,0l-87.232,88.846Z" style="fill:#d4d3d4;fill-rule:nonzero;"/><path d="M6353.038,-68.429l-58.902,-59.994l-780.994,795.458l117.804,0l722.092,-735.464Z" style="fill:#7a7878;fill-rule:nonzero;"/><path d="M5842.566,667.035l616.281,-627.694l-58.902,-59.993l-675.183,687.687l117.804,0Z" style="fill:#7a7878;fill-rule:nonzero;"/><path d="M6564.658,147.11l-58.902,-59.993l-569.374,579.918l117.804,0l510.472,-519.925Z" style="fill:#7a7878;fill-rule:nonzero;"/><path d="M6670.469,254.879l-58.904,-59.993l-463.563,472.148l117.804,0l404.663,-412.156Z" style="fill:#7a7878;fill-rule:nonzero;"/><path d="M6776.278,362.65l-58.902,-59.994l-357.754,364.379l117.804,0l298.852,-304.385Z" style="fill:#7a7878;fill-rule:nonzero;"/><path d="M6882.089,470.419l-58.904,-59.994l-251.943,256.609l117.804,0l193.043,-196.616Z" style="fill:#7a7878;fill-rule:nonzero;"/><path d="M6987.898,578.189l-58.902,-59.994l-146.134,148.84l117.806,0l87.23,-88.846Z" style="fill:#7a7878;fill-rule:nonzero;"/><path d="M3770.624,876.419l-117.804,0l1860.731,-1895.189l117.804,0l-1860.731,1895.189Z" style="fill:#989797;fill-rule:nonzero;"/><path d="M5301.928,-1018.77l117.806,0l-1860.731,1895.189l-117.804,0l1860.728,-1895.189Z" style="fill:#989797;fill-rule:nonzero;"/><path d="M5090.308,-1018.77l117.806,0l-1860.731,1895.189l-117.806,0l1860.731,-1895.189Z" style="fill:#989797;fill-rule:nonzero;"/><path d="M4878.688,-1018.77l117.806,0l-1860.731,1895.189l-117.806,0l1860.731,-1895.189Z" style="fill:#989797;fill-rule:nonzero;"/><path d="M4667.068,-1018.77l117.806,0l-1860.731,1895.189l-117.806,0l1860.731,-1895.189Z" style="fill:#989797;fill-rule:nonzero;"/><path d="M4455.448,-1018.77l117.806,0l-1860.731,1895.189l-117.806,0l1860.731,-1895.189Z" style="fill:#989797;fill-rule:nonzero;"/><path d="M2500.904,876.419l-117.806,0l1860.731,-1895.189l117.804,0l-1860.728,1895.189Z" style="fill:#989797;fill-rule:nonzero;"/><path d="M3770.393,2562.231l-117.806,0l1860.733,-1895.189l117.802,0l-1860.728,1895.189Z" style="fill:#989797;fill-rule:nonzero;"/><path d="M5301.698,667.043l117.806,0l-1860.733,1895.189l-117.804,0l1860.731,-1895.189Z" style="fill:#989797;fill-rule:nonzero;"/><path d="M5090.078,667.043l117.806,0l-1860.733,1895.189l-117.804,0l1860.731,-1895.189Z" style="fill:#989797;fill-rule:nonzero;"/><path d="M4878.458,667.043l117.806,0l-1860.733,1895.189l-117.804,0l1860.731,-1895.189Z" style="fill:#989797;fill-rule:nonzero;"/><path d="M4666.838,667.043l117.806,0l-1860.733,1895.189l-117.804,0l1860.731,-1895.189Z" style="fill:#989797;fill-rule:nonzero;"/><path d="M4455.218,667.043l117.804,0l-1860.728,1895.189l-117.806,0l1860.731,-1895.189Z" style="fill:#989797;fill-rule:nonzero;"/><path d="M2500.671,2562.231l-117.806,0l1860.733,-1895.189l117.804,0l-1860.731,1895.189Z" style="fill:#989797;fill-rule:nonzero;"/><path d="M4012.434,2415.94l349.201,355.667l-117.806,0l-290.296,-295.673l58.902,-59.994Z" style="fill:#d4d3d4;fill-rule:nonzero;"/><path d="M3222.994,1611.882l-58.902,59.994l-780.994,-795.458l117.804,0l722.092,735.464Z" style="fill:#d4d3d4;fill-rule:nonzero;"/><path d="M4059.341,2368.165l58.904,-59.993l455.009,463.435l-117.806,0l-396.107,-403.443Z" style="fill:#d4d3d4;fill-rule:nonzero;"/><path d="M2712.524,876.419l616.281,627.694l-58.902,59.994l-675.185,-687.688l117.806,0Z" style="fill:#d4d3d4;fill-rule:nonzero;"/><path d="M4165.152,2260.395l58.902,-59.994l560.82,571.206l-117.806,0l-501.916,-511.212Z" style="fill:#d4d3d4;fill-rule:nonzero;"/><path d="M3434.613,1396.344l-58.902,59.993l-569.374,-579.918l117.806,0l510.47,519.925Z" style="fill:#d4d3d4;fill-rule:nonzero;"/><path d="M4270.963,2152.626l58.902,-59.994l666.629,678.975l-117.806,0l-607.725,-618.982Z" style="fill:#d4d3d4;fill-rule:nonzero;"/><path d="M3540.425,1288.574l-58.902,59.994l-463.565,-472.149l117.806,0l404.661,412.156Z" style="fill:#d4d3d4;fill-rule:nonzero;"/><path d="M3646.236,1180.804l-58.904,59.994l-357.754,-364.379l117.806,0l298.852,304.385Z" style="fill:#d4d3d4;fill-rule:nonzero;"/><path d="M4376.772,2044.856l58.902,-59.994l772.44,786.745l-117.806,0l-713.536,-726.751Z" style="fill:#d4d3d4;fill-rule:nonzero;"/><path d="M3752.045,1073.034l-58.902,59.994l-251.943,-256.609l117.804,0l193.041,196.616Z" style="fill:#d4d3d4;fill-rule:nonzero;"/><path d="M5419.734,2771.607l-117.806,0l-819.345,-834.52l58.902,-59.994l878.249,894.514Z" style="fill:#d4d3d4;fill-rule:nonzero;"/><path d="M5588.49,2771.607l-74.94,0l-925.158,-942.291l58.902,-59.992l984.06,1002.29l-42.864,-0.008Z" style="fill:#d4d3d4;fill-rule:nonzero;"/><path d="M3857.856,965.265l-58.904,59.994l-146.132,-148.84l117.804,0l87.232,88.846Z" style="fill:#d4d3d4;fill-rule:nonzero;"/><path d="M4791.226,-68.429l58.904,-59.994l780.992,795.458l-117.802,0l-722.094,-735.464Z" style="fill:#7a7878;fill-rule:nonzero;"/><path d="M5301.698,667.035l-616.281,-627.694l58.902,-59.993l675.185,687.687l-117.806,0Z" style="fill:#7a7878;fill-rule:nonzero;"/><path d="M4579.606,147.11l58.902,-59.993l569.376,579.918l-117.806,0l-510.472,-519.925Z" style="fill:#7a7878;fill-rule:nonzero;"/><path d="M4473.797,254.879l58.902,-59.993l463.565,472.148l-117.806,0l-404.661,-412.156Z" style="fill:#7a7878;fill-rule:nonzero;"/><path d="M4367.986,362.65l58.902,-59.994l357.756,364.379l-117.806,0l-298.852,-304.385Z" style="fill:#7a7878;fill-rule:nonzero;"/><path d="M4262.177,470.419l58.902,-59.994l251.943,256.609l-117.804,0l-193.041,-196.616Z" style="fill:#7a7878;fill-rule:nonzero;"/><path d="M4156.366,578.189l58.902,-59.994l146.134,148.84l-117.804,0l-87.232,-88.846Z" style="fill:#7a7878;fill-rule:nonzero;"/><path d="M1839.921,128.905l58.902,59.994l363.116,-369.842l-117.804,0l-304.214,309.848Z" style="fill:#989797;fill-rule:nonzero;"/><path d="M1945.73,236.674l58.902,59.994l468.927,-477.611l-117.804,0l-410.025,417.617Z" style="fill:#989797;fill-rule:nonzero;"/><path d="M2051.541,344.444l58.902,59.994l574.736,-585.38l-117.804,0l-515.834,525.386Z" style="fill:#989797;fill-rule:nonzero;"/><path d="M2157.35,452.213l58.902,59.994l680.547,-693.15l-117.804,0l-621.645,633.156Z" style="fill:#989797;fill-rule:nonzero;"/><path d="M3108.421,-180.943l-117.806,0l-727.454,740.925l58.902,59.994l786.358,-800.919Z" style="fill:#989797;fill-rule:nonzero;"/><path d="M3320.041,-180.943l-117.806,0l-833.265,848.696l58.904,59.994l892.167,-908.69Z" style="fill:#989797;fill-rule:nonzero;"/><path d="M2818.903,1408.674l-58.902,-59.993l-370.694,377.559l117.804,0l311.792,-317.567Z" style="fill:#989797;fill-rule:nonzero;"/><path d="M2713.094,1300.904l-58.904,-59.993l-476.502,485.329l117.804,0l417.603,-425.336Z" style="fill:#989797;fill-rule:nonzero;"/><path d="M2607.283,1193.135l-58.902,-59.993l-582.314,593.098l117.804,0l523.412,-533.106Z" style="fill:#989797;fill-rule:nonzero;"/><path d="M2501.474,1085.366l-58.904,-59.993l-688.125,700.868l117.806,0l629.223,-640.875Z" style="fill:#989797;fill-rule:nonzero;"/><path d="M2801.834,2026.421l-58.904,59.994l-353.622,-360.174l117.804,0l294.723,300.181Z" style="fill:#d4d3d4;fill-rule:nonzero;"/><path d="M2696.023,2134.19l-58.902,59.994l-459.434,-467.944l117.804,0l400.532,407.95Z" style="fill:#d4d3d4;fill-rule:nonzero;"/><path d="M2590.214,2241.96l-58.904,59.994l-565.242,-575.713l117.804,0l506.343,515.719Z" style="fill:#d4d3d4;fill-rule:nonzero;"/><path d="M2484.403,2349.729l-58.902,59.993l-671.056,-683.481l117.806,0l612.151,623.489Z" style="fill:#d4d3d4;fill-rule:nonzero;"/><path d="M4984.881,2020.225l58.902,59.993l363.116,-369.842l-117.804,0l-304.214,309.849Z" style="fill:#989797;fill-rule:nonzero;"/><path d="M5090.69,2127.995l58.904,59.993l468.925,-477.611l-117.804,0l-410.025,417.618Z" style="fill:#989797;fill-rule:nonzero;"/><path d="M5196.501,2235.764l58.902,59.993l574.738,-585.38l-117.806,0l-515.834,525.388Z" style="fill:#989797;fill-rule:nonzero;"/><path d="M5302.31,2343.534l58.904,59.993l680.547,-693.15l-117.806,0l-621.645,633.157Z" style="fill:#989797;fill-rule:nonzero;"/><path d="M6253.381,1710.377l-117.806,0l-727.454,740.926l58.902,59.993l786.358,-800.919Z" style="fill:#989797;fill-rule:nonzero;"/><path d="M6465.001,1710.377l-117.806,0l-833.263,848.696l58.902,59.994l892.167,-908.69Z" style="fill:#989797;fill-rule:nonzero;"/><path d="M5952.023,131.008l-58.902,59.993l-353.625,-360.172l117.804,0l294.723,300.179Z" style="fill:#989797;fill-rule:nonzero;"/><path d="M5846.214,238.777l-58.904,59.993l-459.434,-467.942l117.804,0l400.534,407.949Z" style="fill:#989797;fill-rule:nonzero;"/><path d="M5740.403,346.546l-58.902,59.993l-565.245,-575.711l117.804,0l506.343,515.718Z" style="fill:#989797;fill-rule:nonzero;"/><path d="M5634.592,454.316l-58.902,59.993l-671.053,-683.48l117.804,0l612.151,623.488Z" style="fill:#989797;fill-rule:nonzero;"/><path d="M4996.264,1411.336l58.902,-59.993l352.505,359.034l-117.804,0l-293.603,-299.041Z" style="fill:#7a7878;fill-rule:nonzero;"/><path d="M5102.073,1303.566l58.902,-59.993l458.316,466.803l-117.804,0l-399.414,-406.81Z" style="fill:#7a7878;fill-rule:nonzero;"/><path d="M5207.884,1195.797l58.902,-59.993l564.125,574.573l-117.804,0l-505.223,-514.58Z" style="fill:#7a7878;fill-rule:nonzero;"/><path d="M5313.693,1088.027l58.902,-59.994l669.936,682.343l-117.804,0l-611.034,-622.349Z" style="fill:#7a7878;fill-rule:nonzero;"/><path d="M6254.153,1710.377l-117.806,0l-716.843,-730.119l58.902,-59.993l775.747,790.111Z" style="fill:#7a7878;fill-rule:nonzero;"/><path d="M6465.772,1710.377l-117.806,0l-822.654,-837.888l58.904,-59.993l881.556,897.881Z" style="fill:#7a7878;fill-rule:nonzero;"/><path d="M1099.332,4666.291l117.804,0l-1860.731,-1895.189l-117.804,0l1860.731,1895.189Z" style="fill:#989797;fill-rule:nonzero;"/><path d="M-431.975,2771.102l-117.804,0l1860.731,1895.189l117.804,0l-1860.731,-1895.189Z" style="fill:#989797;fill-rule:nonzero;"/><path d="M-220.353,2771.102l-117.806,0l1860.731,1895.189l117.804,0l-1860.728,-1895.189Z" style="fill:#989797;fill-rule:nonzero;"/><path d="M-8.733,2771.102l-117.806,0l1860.731,1895.189l117.804,0l-1860.728,-1895.189Z" style="fill:#989797;fill-rule:nonzero;"/><path d="M202.885,2771.102l-117.804,0l1860.731,1895.189l117.806,0l-1860.733,-1895.189Z" style="fill:#989797;fill-rule:nonzero;"/><path d="M414.505,2771.102l-117.804,0l1860.731,1895.189l117.806,0l-1860.733,-1895.189Z" style="fill:#989797;fill-rule:nonzero;"/><path d="M2369.052,4666.291l117.806,0l-1860.731,-1895.189l-117.806,0l1860.731,1895.189Z" style="fill:#989797;fill-rule:nonzero;"/><path d="M1099.563,6352.103l117.804,0l-1860.731,-1895.189l-117.804,0l1860.731,1895.189Z" style="fill:#989797;fill-rule:nonzero;"/><path d="M-431.742,4456.915l-117.806,0l1860.731,1895.189l117.804,0l-1860.728,-1895.189Z" style="fill:#989797;fill-rule:nonzero;"/><path d="M-220.122,4456.915l-117.806,0l1860.731,1895.189l117.806,0l-1860.731,-1895.189Z" style="fill:#989797;fill-rule:nonzero;"/><path d="M-8.502,4456.915l-117.806,0l1860.731,1895.189l117.806,0l-1860.731,-1895.189Z" style="fill:#989797;fill-rule:nonzero;"/><path d="M203.118,4456.915l-117.806,0l1860.731,1895.189l117.806,0l-1860.731,-1895.189Z" style="fill:#989797;fill-rule:nonzero;"/><path d="M414.738,4456.915l-117.806,0l1860.731,1895.189l117.806,0l-1860.731,-1895.189Z" style="fill:#989797;fill-rule:nonzero;"/><path d="M2369.282,6352.103l117.806,0l-1860.731,-1895.189l-117.804,0l1860.728,1895.189Z" style="fill:#989797;fill-rule:nonzero;"/><path d="M1646.96,5401.755l58.902,59.994l780.996,-795.458l-117.806,0l-722.092,735.464Z" style="fill:#d4d3d4;fill-rule:nonzero;"/><path d="M2157.432,4666.291l-616.281,627.694l58.902,59.994l675.185,-687.688l-117.806,0Z" style="fill:#d4d3d4;fill-rule:nonzero;"/><path d="M1435.34,5186.216l58.902,59.993l569.376,-579.918l-117.806,0l-510.472,519.925Z" style="fill:#d4d3d4;fill-rule:nonzero;"/><path d="M1329.531,5078.446l58.902,59.994l463.563,-472.149l-117.804,0l-404.661,412.156Z" style="fill:#d4d3d4;fill-rule:nonzero;"/><path d="M1223.72,4970.676l58.902,59.994l357.754,-364.379l-117.804,0l-298.852,304.385Z" style="fill:#d4d3d4;fill-rule:nonzero;"/><path d="M1117.911,4862.906l58.902,59.994l251.943,-256.609l-117.804,0l-193.041,196.616Z" style="fill:#d4d3d4;fill-rule:nonzero;"/><path d="M1012.1,4755.137l58.902,59.994l146.134,-148.84l-117.804,0l-87.232,88.846Z" style="fill:#d4d3d4;fill-rule:nonzero;"/><path d="M868.168,2917.384l349.198,-355.666l-117.804,0l-290.296,295.673l58.902,59.993Z" style="fill:#7a7878;fill-rule:nonzero;"/><path d="M78.728,3721.443l-58.902,-59.994l-780.994,795.458l117.804,0l722.092,-735.464Z" style="fill:#7a7878;fill-rule:nonzero;"/><path d="M915.075,2965.161l58.904,59.993l455.007,-463.435l-117.804,0l-396.107,403.443Z" style="fill:#7a7878;fill-rule:nonzero;"/><path d="M-431.742,4456.907l616.281,-627.694l-58.902,-59.993l-675.185,687.687l117.806,0Z" style="fill:#7a7878;fill-rule:nonzero;"/><path d="M1020.886,3072.93l58.902,59.993l560.82,-571.205l-117.806,0l-501.916,511.212Z" style="fill:#7a7878;fill-rule:nonzero;"/><path d="M290.347,3936.982l-58.902,-59.993l-569.374,579.918l117.806,0l510.47,-519.925Z" style="fill:#7a7878;fill-rule:nonzero;"/><path d="M1126.695,3180.7l58.904,59.993l666.629,-678.974l-117.806,0l-607.727,618.982Z" style="fill:#7a7878;fill-rule:nonzero;"/><path d="M396.159,4044.751l-58.902,-59.993l-463.565,472.148l117.806,0l404.661,-412.156Z" style="fill:#7a7878;fill-rule:nonzero;"/><path d="M501.967,4152.522l-58.9,-59.994l-357.756,364.379l117.806,0l298.85,-304.385Z" style="fill:#7a7878;fill-rule:nonzero;"/><path d="M1232.506,3288.469l58.902,59.993l772.44,-786.744l-117.806,0l-713.536,726.751Z" style="fill:#7a7878;fill-rule:nonzero;"/><path d="M607.778,4260.291l-58.902,-59.994l-251.945,256.609l117.806,0l193.041,-196.616Z" style="fill:#7a7878;fill-rule:nonzero;"/><path d="M2275.468,2561.718l-117.806,0l-819.347,834.52l58.904,59.993l878.249,-894.513Z" style="fill:#7a7878;fill-rule:nonzero;"/><path d="M2444.224,2561.718l-74.94,0l-925.158,942.29l58.902,59.994l962.627,-980.455l-21.431,-21.829Z" style="fill:#7a7878;fill-rule:nonzero;"/><path d="M713.59,4368.061l-58.904,-59.994l-146.132,148.84l117.804,0l87.232,-88.846Z" style="fill:#7a7878;fill-rule:nonzero;"/><path d="M7373.64,4666.291l117.806,0l-1860.731,-1895.189l-117.806,0l1860.731,1895.189Z" style="fill:#989797;fill-rule:nonzero;"/><path d="M5842.336,2771.102l-117.804,0l1860.728,1895.189l117.806,0l-1860.731,-1895.189Z" style="fill:#989797;fill-rule:nonzero;"/><path d="M6053.956,2771.102l-117.806,0l1860.731,1895.189l117.806,0l-1860.731,-1895.189Z" style="fill:#989797;fill-rule:nonzero;"/><path d="M6265.575,2771.102l-117.804,0l1860.728,1895.189l117.806,0l-1860.731,-1895.189Z" style="fill:#989797;fill-rule:nonzero;"/><path d="M6477.195,2771.102l-117.804,0l1860.731,1895.189l117.804,0l-1860.731,-1895.189Z" style="fill:#989797;fill-rule:nonzero;"/><path d="M6688.815,2771.102l-117.804,0l1860.731,1895.189l117.804,0l-1860.731,-1895.189Z" style="fill:#989797;fill-rule:nonzero;"/><path d="M8643.362,4666.291l117.804,0l-1860.731,-1895.189l-117.804,0l1860.731,1895.189Z" style="fill:#989797;fill-rule:nonzero;"/><path d="M7373.871,6352.103l117.806,0l-1860.731,-1895.189l-117.804,0l1860.728,1895.189Z" style="fill:#989797;fill-rule:nonzero;"/><path d="M5842.566,4456.915l-117.804,0l1860.728,1895.189l117.806,0l-1860.731,-1895.189Z" style="fill:#989797;fill-rule:nonzero;"/><path d="M6054.186,4456.915l-117.804,0l1860.731,1895.189l117.804,0l-1860.731,-1895.189Z" style="fill:#989797;fill-rule:nonzero;"/><path d="M6265.806,4456.915l-117.804,0l1860.731,1895.189l117.804,0l-1860.731,-1895.189Z" style="fill:#989797;fill-rule:nonzero;"/><path d="M6477.426,4456.915l-117.804,0l1860.731,1895.189l117.804,0l-1860.731,-1895.189Z" style="fill:#989797;fill-rule:nonzero;"/><path d="M6689.046,4456.915l-117.804,0l1860.731,1895.189l117.804,0l-1860.731,-1895.189Z" style="fill:#989797;fill-rule:nonzero;"/><path d="M8643.593,6352.103l117.806,0l-1860.731,-1895.189l-117.806,0l1860.731,1895.189Z" style="fill:#989797;fill-rule:nonzero;"/><path d="M7921.27,5401.755l58.902,59.994l780.994,-795.458l-117.804,0l-722.092,735.464Z" style="fill:#d4d3d4;fill-rule:nonzero;"/><path d="M8431.742,4666.291l-616.283,627.694l58.902,59.994l675.185,-687.688l-117.804,0Z" style="fill:#d4d3d4;fill-rule:nonzero;"/><path d="M7709.648,5186.216l58.904,59.993l569.374,-579.918l-117.804,0l-510.474,519.925Z" style="fill:#d4d3d4;fill-rule:nonzero;"/><path d="M7603.839,5078.446l58.902,59.994l463.565,-472.149l-117.806,0l-404.661,412.156Z" style="fill:#d4d3d4;fill-rule:nonzero;"/><path d="M7498.028,4970.676l58.904,59.994l357.754,-364.379l-117.806,0l-298.852,304.385Z" style="fill:#d4d3d4;fill-rule:nonzero;"/><path d="M7392.219,4862.906l58.902,59.994l251.945,-256.609l-117.806,0l-193.041,196.616Z" style="fill:#d4d3d4;fill-rule:nonzero;"/><path d="M7286.408,4755.137l58.904,59.994l146.134,-148.84l-117.806,0l-87.232,88.846Z" style="fill:#d4d3d4;fill-rule:nonzero;"/><path d="M7142.476,2917.384l349.201,-355.666l-117.806,0l-290.296,295.673l58.902,59.993Z" style="fill:#7a7878;fill-rule:nonzero;"/><path d="M6353.038,3721.443l-58.902,-59.994l-780.994,795.458l117.804,0l722.092,-735.464Z" style="fill:#7a7878;fill-rule:nonzero;"/><path d="M7189.386,2965.161l58.902,59.993l455.009,-463.435l-117.806,0l-396.105,403.443Z" style="fill:#7a7878;fill-rule:nonzero;"/><path d="M5842.566,4456.907l616.281,-627.694l-58.902,-59.993l-675.183,687.687l117.804,0Z" style="fill:#7a7878;fill-rule:nonzero;"/><path d="M7295.194,3072.93l58.902,59.993l560.82,-571.205l-117.804,0l-501.918,511.212Z" style="fill:#7a7878;fill-rule:nonzero;"/><path d="M6564.658,3936.982l-58.902,-59.993l-569.374,579.918l117.804,0l510.472,-519.925Z" style="fill:#7a7878;fill-rule:nonzero;"/><path d="M7401.005,3180.7l58.902,59.993l666.629,-678.974l-117.804,0l-607.727,618.982Z" style="fill:#7a7878;fill-rule:nonzero;"/><path d="M6670.469,4044.751l-58.904,-59.993l-463.563,472.148l117.804,0l404.663,-412.156Z" style="fill:#7a7878;fill-rule:nonzero;"/><path d="M6776.278,4152.522l-58.902,-59.994l-357.754,364.379l117.804,0l298.852,-304.385Z" style="fill:#7a7878;fill-rule:nonzero;"/><path d="M7506.817,3288.469l58.9,59.993l772.44,-786.744l-117.804,0l-713.536,726.751Z" style="fill:#7a7878;fill-rule:nonzero;"/><path d="M6882.089,4260.291l-58.904,-59.994l-251.943,256.609l117.804,0l193.043,-196.616Z" style="fill:#7a7878;fill-rule:nonzero;"/><path d="M8549.777,2561.718l-117.804,0l-819.347,834.52l58.902,59.993l878.249,-894.513Z" style="fill:#7a7878;fill-rule:nonzero;"/><path d="M8718.532,2561.718l-74.94,0l-925.158,942.29l58.904,59.994l962.627,-980.455l-21.433,-21.829Z" style="fill:#7a7878;fill-rule:nonzero;"/><path d="M6987.898,4368.061l-58.902,-59.994l-146.134,148.84l117.806,0l87.23,-88.846Z" style="fill:#7a7878;fill-rule:nonzero;"/><path d="M3770.624,4666.291l-117.804,0l1860.731,-1895.189l117.804,0l-1860.731,1895.189Z" style="fill:#989797;fill-rule:nonzero;"/><path d="M5301.928,2771.102l117.806,0l-1860.731,1895.189l-117.804,0l1860.728,-1895.189Z" style="fill:#989797;fill-rule:nonzero;"/><path d="M5090.308,2771.102l117.806,0l-1860.731,1895.189l-117.806,0l1860.731,-1895.189Z" style="fill:#989797;fill-rule:nonzero;"/><path d="M4878.688,2771.102l117.806,0l-1860.731,1895.189l-117.806,0l1860.731,-1895.189Z" style="fill:#989797;fill-rule:nonzero;"/><path d="M4667.068,2771.102l117.806,0l-1860.731,1895.189l-117.806,0l1860.731,-1895.189Z" style="fill:#989797;fill-rule:nonzero;"/><path d="M4455.448,2771.102l117.806,0l-1860.731,1895.189l-117.806,0l1860.731,-1895.189Z" style="fill:#989797;fill-rule:nonzero;"/><path d="M2500.904,4666.291l-117.806,0l1860.731,-1895.189l117.804,0l-1860.728,1895.189Z" style="fill:#989797;fill-rule:nonzero;"/><path d="M3770.393,6352.103l-117.806,0l1860.733,-1895.189l117.802,0l-1860.728,1895.189Z" style="fill:#989797;fill-rule:nonzero;"/><path d="M5301.698,4456.915l117.806,0l-1860.733,1895.189l-117.804,0l1860.731,-1895.189Z" style="fill:#989797;fill-rule:nonzero;"/><path d="M5090.078,4456.915l117.806,0l-1860.733,1895.189l-117.804,0l1860.731,-1895.189Z" style="fill:#989797;fill-rule:nonzero;"/><path d="M4878.458,4456.915l117.806,0l-1860.733,1895.189l-117.804,0l1860.731,-1895.189Z" style="fill:#989797;fill-rule:nonzero;"/><path d="M4666.838,4456.915l117.806,0l-1860.733,1895.189l-117.804,0l1860.731,-1895.189Z" style="fill:#989797;fill-rule:nonzero;"/><path d="M4455.218,4456.915l117.804,0l-1860.728,1895.189l-117.806,0l1860.731,-1895.189Z" style="fill:#989797;fill-rule:nonzero;"/><path d="M2500.671,6352.103l-117.806,0l1860.733,-1895.189l117.804,0l-1860.731,1895.189Z" style="fill:#989797;fill-rule:nonzero;"/><path d="M3222.994,5401.755l-58.902,59.994l-780.994,-795.458l117.804,0l722.092,735.464Z" style="fill:#d4d3d4;fill-rule:nonzero;"/><path d="M2712.524,4666.291l616.281,627.694l-58.902,59.994l-675.185,-687.688l117.806,0Z" style="fill:#d4d3d4;fill-rule:nonzero;"/><path d="M3434.613,5186.216l-58.902,59.993l-569.374,-579.918l117.806,0l510.47,519.925Z" style="fill:#d4d3d4;fill-rule:nonzero;"/><path d="M3540.425,5078.446l-58.902,59.994l-463.565,-472.149l117.806,0l404.661,412.156Z" style="fill:#d4d3d4;fill-rule:nonzero;"/><path d="M3646.236,4970.676l-58.904,59.994l-357.754,-364.379l117.806,0l298.852,304.385Z" style="fill:#d4d3d4;fill-rule:nonzero;"/><path d="M3752.045,4862.906l-58.902,59.994l-251.943,-256.609l117.804,0l193.041,196.616Z" style="fill:#d4d3d4;fill-rule:nonzero;"/><path d="M3857.856,4755.137l-58.904,59.994l-146.132,-148.84l117.804,0l87.232,88.846Z" style="fill:#d4d3d4;fill-rule:nonzero;"/><path d="M4001.787,2917.384l-349.201,-355.666l117.806,0l290.296,295.673l-58.902,59.993Z" style="fill:#7a7878;fill-rule:nonzero;"/><path d="M4791.226,3721.443l58.904,-59.994l780.992,795.458l-117.802,0l-722.094,-735.464Z" style="fill:#7a7878;fill-rule:nonzero;"/><path d="M3954.88,2965.161l-58.904,59.993l-455.009,-463.435l117.804,0l396.11,403.443Z" style="fill:#7a7878;fill-rule:nonzero;"/><path d="M5301.698,4456.907l-616.281,-627.694l58.902,-59.993l675.185,687.687l-117.806,0Z" style="fill:#7a7878;fill-rule:nonzero;"/><path d="M3849.069,3072.93l-58.902,59.993l-560.82,-571.205l117.804,0l501.918,511.212Z" style="fill:#7a7878;fill-rule:nonzero;"/><path d="M4579.606,3936.982l58.902,-59.993l569.376,579.918l-117.806,0l-510.472,-519.925Z" style="fill:#7a7878;fill-rule:nonzero;"/><path d="M3743.261,3180.7l-58.904,59.993l-666.629,-678.974l117.804,0l607.73,618.982Z" style="fill:#7a7878;fill-rule:nonzero;"/><path d="M4473.797,4044.751l58.902,-59.993l463.565,472.148l-117.806,0l-404.661,-412.156Z" style="fill:#7a7878;fill-rule:nonzero;"/><path d="M4367.986,4152.522l58.902,-59.994l357.756,364.379l-117.806,0l-298.852,-304.385Z" style="fill:#7a7878;fill-rule:nonzero;"/><path d="M3637.449,3288.469l-58.902,59.993l-772.44,-786.744l117.804,0l713.538,726.751Z" style="fill:#7a7878;fill-rule:nonzero;"/><path d="M4262.177,4260.291l58.902,-59.994l251.943,256.609l-117.804,0l-193.041,-196.616Z" style="fill:#7a7878;fill-rule:nonzero;"/><path d="M2594.487,2561.718l117.806,0l819.345,834.52l-58.902,59.993l-878.249,-894.513Z" style="fill:#7a7878;fill-rule:nonzero;"/><path d="M2425.731,2561.718l74.94,0l925.158,942.29l-58.904,59.994l-962.627,-980.455l21.433,-21.829Z" style="fill:#7a7878;fill-rule:nonzero;"/><path d="M4156.366,4368.061l58.902,-59.994l146.134,148.84l-117.804,0l-87.232,-88.846Z" style="fill:#7a7878;fill-rule:nonzero;"/><path d="M1839.921,3918.777l58.902,59.994l363.116,-369.842l-117.804,0l-304.214,309.848Z" style="fill:#989797;fill-rule:nonzero;"/><path d="M1945.73,4026.546l58.902,59.994l468.927,-477.611l-117.804,0l-410.025,417.617Z" style="fill:#989797;fill-rule:nonzero;"/><path d="M2051.541,4134.316l58.902,59.994l574.736,-585.38l-117.804,0l-515.834,525.386Z" style="fill:#989797;fill-rule:nonzero;"/><path d="M2157.35,4242.085l58.902,59.994l680.547,-693.15l-117.804,0l-621.645,633.156Z" style="fill:#989797;fill-rule:nonzero;"/><path d="M3108.421,3608.929l-117.806,0l-727.454,740.925l58.902,59.994l786.358,-800.919Z" style="fill:#989797;fill-rule:nonzero;"/><path d="M3320.041,3608.929l-117.806,0l-833.265,848.696l58.904,59.994l892.167,-908.69Z" style="fill:#989797;fill-rule:nonzero;"/><path d="M1850.532,3309.888l58.902,-59.993l352.505,359.034l-117.804,0l-293.603,-299.041Z" style="fill:#d4d3d4;fill-rule:nonzero;"/><path d="M1956.341,3202.119l58.902,-59.994l458.316,466.804l-117.804,0l-399.414,-406.81Z" style="fill:#d4d3d4;fill-rule:nonzero;"/><path d="M2062.152,3094.349l58.902,-59.994l564.125,574.574l-117.804,0l-505.223,-514.58Z" style="fill:#d4d3d4;fill-rule:nonzero;"/><path d="M2167.961,2986.58l58.902,-59.994l669.936,682.343l-117.804,0l-611.034,-622.349Z" style="fill:#d4d3d4;fill-rule:nonzero;"/><path d="M3108.421,3608.929l-117.806,0l-716.843,-730.119l58.902,-59.994l775.747,790.113Z" style="fill:#d4d3d4;fill-rule:nonzero;"/><path d="M3320.041,3608.929l-117.806,0l-822.654,-837.889l58.904,-59.993l881.556,897.882Z" style="fill:#d4d3d4;fill-rule:nonzero;"/><path d="M2818.903,5198.546l-58.902,-59.993l-370.694,377.559l117.804,0l311.792,-317.567Z" style="fill:#989797;fill-rule:nonzero;"/><path d="M2713.094,5090.776l-58.904,-59.993l-476.502,485.329l117.804,0l417.603,-425.336Z" style="fill:#989797;fill-rule:nonzero;"/><path d="M2607.283,4983.007l-58.902,-59.993l-582.314,593.098l117.804,0l523.412,-533.106Z" style="fill:#989797;fill-rule:nonzero;"/><path d="M2501.474,4875.238l-58.904,-59.993l-688.125,700.868l117.806,0l629.223,-640.875Z" style="fill:#989797;fill-rule:nonzero;"/><path d="M5953.289,3319.229l-58.902,-59.993l-354.891,361.464l117.804,0l295.989,-301.471Z" style="fill:#d4d3d4;fill-rule:nonzero;"/><path d="M5847.48,3211.46l-58.902,-59.993l-460.702,469.233l117.804,0l401.8,-409.241Z" style="fill:#d4d3d4;fill-rule:nonzero;"/><path d="M5741.669,3103.69l-58.902,-59.993l-566.511,577.003l117.804,0l507.609,-517.01Z" style="fill:#d4d3d4;fill-rule:nonzero;"/><path d="M5635.86,2995.92l-58.902,-59.992l-672.322,684.772l117.804,0l613.42,-624.781Z" style="fill:#d4d3d4;fill-rule:nonzero;"/><path d="M5952.023,3920.88l-58.902,59.993l-353.625,-360.172l117.804,0l294.723,300.179Z" style="fill:#989797;fill-rule:nonzero;"/><path d="M5846.214,4028.649l-58.904,59.993l-459.434,-467.942l117.804,0l400.534,407.949Z" style="fill:#989797;fill-rule:nonzero;"/><path d="M5740.403,4136.418l-58.902,59.993l-565.245,-575.711l117.804,0l506.343,515.718Z" style="fill:#989797;fill-rule:nonzero;"/><path d="M5634.592,4244.188l-58.902,59.993l-671.053,-683.48l117.804,0l612.151,623.488Z" style="fill:#989797;fill-rule:nonzero;"/><path d="M4996.264,5201.208l58.902,-59.993l352.505,359.034l-117.804,0l-293.603,-299.041Z" style="fill:#7a7878;fill-rule:nonzero;"/><path d="M5102.073,5093.438l58.902,-59.993l458.316,466.803l-117.804,0l-399.414,-406.81Z" style="fill:#7a7878;fill-rule:nonzero;"/><path d="M5207.884,4985.669l58.902,-59.993l564.125,574.573l-117.804,0l-505.223,-514.58Z" style="fill:#7a7878;fill-rule:nonzero;"/><path d="M5313.693,4877.899l58.902,-59.994l669.936,682.343l-117.804,0l-611.034,-622.349Z" style="fill:#7a7878;fill-rule:nonzero;"/><path d="M6254.153,5500.249l-117.806,0l-716.843,-730.119l58.902,-59.993l775.747,790.111Z" style="fill:#7a7878;fill-rule:nonzero;"/><path d="M6465.772,5500.249l-117.806,0l-822.654,-837.888l58.904,-59.993l881.556,897.881Z" style="fill:#7a7878;fill-rule:nonzero;"/></g></svg>