<?xml version="1.0" encoding="UTF-8" standalone="no"?><!DOCTYPE svg PUBLIC "-//W3C//DTD SVG 1.1//EN" "http://www.w3.org/Graphics/SVG/1.1/DTD/svg11.dtd"><svg width="100%" height="100%" viewBox="0 0 8000 5334" version="1.1" xmlns="http://www.w3.org/2000/svg" xmlns:xlink="http://www.w3.org/1999/xlink" xml:space="preserve" xmlns:serif="http://www.serif.com/" style="fill-rule:evenodd;clip-rule:evenodd;stroke-linejoin:round;stroke-miterlimit:2;"><g><path d="M1041.967,2756.669l95.027,-96.787l6.905,7.031l-95.027,96.79l-6.905,-7.035Zm48.901,-129.702l-1705.818,-1737.409l768.761,-782.996l6.905,7.031l-761.856,775.965l1705.818,1737.409l-13.81,0Z" style="fill:#d4d3d4;fill-rule:nonzero;"/><path d="M2208.098,849.44l-1666.749,-1697.613l13.809,0l1666.749,1697.613l-13.809,0Z" style="fill:#d4d3d4;fill-rule:nonzero;"/><path d="M1984.824,849.44l-1666.749,-1697.613l13.809,0l1666.749,1697.613l-13.809,0Z" style="fill:#d4d3d4;fill-rule:nonzero;"/><path d="M1761.55,849.44l-1666.749,-1697.613l13.809,0l1666.749,1697.613l-13.809,0Z" style="fill:#d4d3d4;fill-rule:nonzero;"/><path d="M1538.274,849.44l-1666.747,-1697.613l13.809,0l1666.747,1697.613l-13.809,0Z" style="fill:#d4d3d4;fill-rule:nonzero;"/><path d="M1315.002,849.44l-1666.749,-1697.613l13.809,0l1666.749,1697.613l-13.809,0Z" style="fill:#d4d3d4;fill-rule:nonzero;"/><path d="M1091.726,849.44l-1666.749,-1697.613l13.81,0l1666.747,1697.613l-13.809,0Z" style="fill:#d4d3d4;fill-rule:nonzero;"/><path d="M4175.377,849.269l-1666.749,-1697.613l13.809,0l1666.752,1697.613l-13.812,0Zm-2463.59,-965.083l719.212,-732.529l13.805,0l-726.113,739.561l-6.905,-7.031Z" style="fill:#d4d3d4;fill-rule:nonzero;"/><path d="M2208.098,4404.147l-1666.749,-1697.609l13.809,0l1666.75,1697.609l-13.81,0Zm-1705.974,-1737.563l206.66,-210.487l6.905,7.031l-206.661,210.49l-6.903,-7.035Z" style="fill:#d4d3d4;fill-rule:nonzero;"/><path d="M1596.939,1551.494l611.159,-622.472l13.809,0l-618.064,629.507l-6.903,-7.035Z" style="fill:#d4d3d4;fill-rule:nonzero;"/><path d="M1984.824,4404.147l-1666.749,-1697.609l13.809,0l1666.749,1697.609l-13.809,0Zm-1705.974,-1737.563l318.296,-324.193l6.907,7.031l-318.297,324.197l-6.905,-7.035Z" style="fill:#d4d3d4;fill-rule:nonzero;"/><path d="M1485.301,1437.79l499.523,-508.768l13.809,0l-506.427,515.803l-6.905,-7.035Z" style="fill:#d4d3d4;fill-rule:nonzero;"/><path d="M1761.55,4404.147l-1666.75,-1697.609l13.81,0l1666.75,1697.609l-13.81,0Zm-1705.974,-1737.563l429.933,-437.897l6.905,7.035l-429.933,437.897l-6.905,-7.035Z" style="fill:#d4d3d4;fill-rule:nonzero;"/><path d="M1373.665,1324.087l387.885,-395.065l13.809,0l-394.789,402.096l-6.905,-7.031Z" style="fill:#d4d3d4;fill-rule:nonzero;"/><path d="M1262.027,1210.38l276.248,-281.358l13.809,0l-283.151,288.393l-6.905,-7.035Z" style="fill:#d4d3d4;fill-rule:nonzero;"/><path d="M1538.274,4404.147l-1666.747,-1697.609l13.809,0l1666.747,1697.609l-13.809,0Zm-1705.972,-1737.563l541.571,-551.6l6.903,7.031l-541.57,551.604l-6.905,-7.035Z" style="fill:#d4d3d4;fill-rule:nonzero;"/><path d="M1150.391,1096.68l164.611,-167.658l13.809,0l-171.517,174.689l-6.903,-7.031Z" style="fill:#d4d3d4;fill-rule:nonzero;"/><path d="M1315.002,4404.147l-1666.749,-1697.609l13.809,0l1666.749,1697.609l-13.809,0Zm-1705.976,-1737.563l653.209,-665.307l6.905,7.035l-653.207,665.307l-6.907,-7.035Z" style="fill:#d4d3d4;fill-rule:nonzero;"/><path d="M1091.726,4404.147l-1666.75,-1697.609l13.812,0l1666.749,1697.609l-13.81,0Zm-1705.974,-1737.563l764.845,-779.011l6.907,7.035l-764.847,779.011l-6.905,-7.035Z" style="fill:#d4d3d4;fill-rule:nonzero;"/><path d="M1038.753,982.973l52.974,-53.951l13.809,0l-59.877,60.982l-6.905,-7.031Z" style="fill:#d4d3d4;fill-rule:nonzero;"/><path d="M2207.238,6181.677l-1705.819,-1737.409l210.579,-214.475l6.903,7.031l-203.672,207.444l1705.819,1737.409l-13.81,0Z" style="fill:#d4d3d4;fill-rule:nonzero;"/><path d="M1983.964,6181.677l-1705.818,-1737.409l322.213,-328.182l6.905,7.035l-315.308,321.147l1705.818,1737.409l-13.81,0Z" style="fill:#d4d3d4;fill-rule:nonzero;"/><path d="M1760.69,6181.677l-1705.819,-1737.409l433.851,-441.885l6.907,7.035l-426.948,434.851l1705.819,1737.409l-13.81,0Z" style="fill:#d4d3d4;fill-rule:nonzero;"/><path d="M1537.416,6181.677l-1705.818,-1737.409l545.487,-555.589l6.905,7.031l-538.582,548.558l1705.818,1737.409l-13.81,0Z" style="fill:#d4d3d4;fill-rule:nonzero;"/><path d="M1314.142,6181.677l-1705.819,-1737.409l657.127,-669.296l6.903,7.035l-650.22,662.261l1705.818,1737.409l-13.809,0Z" style="fill:#d4d3d4;fill-rule:nonzero;"/><path d="M1090.867,6181.677l-1705.816,-1737.409l768.761,-782.996l6.905,7.031l-761.856,775.965l1705.818,1737.409l-13.812,0Z" style="fill:#d4d3d4;fill-rule:nonzero;"/><path d="M1153.604,2870.376l206.666,-210.493l6.903,7.035l-206.665,210.49l-6.905,-7.031Zm160.539,-243.409l-1705.819,-1737.409l657.127,-669.292l6.903,7.035l-650.22,662.258l1705.819,1737.409l-13.81,0Z" style="fill:#d4d3d4;fill-rule:nonzero;"/><path d="M1265.24,2984.079l318.302,-324.197l6.905,7.031l-318.301,324.197l-6.907,-7.031Zm272.177,-357.112l-1705.818,-1737.409l545.487,-555.589l6.905,7.031l-538.582,548.558l1705.818,1737.409l-13.81,0Z" style="fill:#d4d3d4;fill-rule:nonzero;"/><path d="M1376.877,3097.782l429.94,-437.9l6.903,7.035l-429.939,437.897l-6.905,-7.031Zm383.813,-470.816l-1705.819,-1737.409l433.853,-441.882l6.903,7.031l-426.946,434.851l1705.819,1737.409l-13.81,0Z" style="fill:#d4d3d4;fill-rule:nonzero;"/><path d="M1488.515,3211.486l541.576,-551.604l6.905,7.035l-541.578,551.604l-6.903,-7.035Zm495.449,-584.519l-1705.818,-1737.409l322.213,-328.182l6.905,7.035l-315.308,321.147l1705.818,1737.409l-13.81,0Z" style="fill:#d4d3d4;fill-rule:nonzero;"/><path d="M1600.151,3325.189l653.214,-665.307l6.903,7.031l-653.212,665.311l-6.905,-7.035Zm607.085,-698.223l-1705.818,-1737.409l210.579,-214.475l6.903,7.031l-203.672,207.444l1705.819,1737.409l-13.812,0Z" style="fill:#d4d3d4;fill-rule:nonzero;"/><path d="M4175.057,6181.677l-1667.08,-1697.952l13.81,0l1667.08,1697.952l-13.81,0Zm-2466.483,-961.77l761.102,-775.194l-0.437,-0.445l0.76,-0.774l-1705.379,-1736.956l13.81,0l1698.473,1729.925l761.096,-775.19l6.905,7.031l-735.368,748.984l-794.059,809.654l-6.905,-7.035Zm-983.179,-2553.323l95.025,-96.787l6.905,7.035l-95.023,96.787l-6.907,-7.035Z" style="fill:#d4d3d4;fill-rule:nonzero;"/><path d="M1596.939,5106.204l611.159,-622.475l13.809,0l-618.064,629.507l-6.903,-7.031Z" style="fill:#d4d3d4;fill-rule:nonzero;"/><path d="M1485.301,4992.501l499.523,-508.772l13.81,0l-506.428,515.807l-6.905,-7.035Z" style="fill:#d4d3d4;fill-rule:nonzero;"/><path d="M1373.665,4878.797l387.885,-395.068l13.81,0l-394.79,402.1l-6.905,-7.031Z" style="fill:#d4d3d4;fill-rule:nonzero;"/><path d="M1262.027,4765.09l276.248,-281.361l13.81,0l-283.153,288.396l-6.905,-7.035Z" style="fill:#d4d3d4;fill-rule:nonzero;"/><path d="M1150.391,4651.387l164.611,-167.658l13.809,0l-171.517,174.693l-6.903,-7.035Z" style="fill:#d4d3d4;fill-rule:nonzero;"/><path d="M1038.753,4537.684l52.974,-53.955l13.81,0l-59.879,60.986l-6.905,-7.031Z" style="fill:#d4d3d4;fill-rule:nonzero;"/><path d="M5593.882,2626.795l725.949,-739.393l6.905,7.035l-719.043,732.358l-13.812,0Zm-79.719,0l-1705.818,-1737.409l98.941,-100.772l6.905,7.035l-92.036,93.737l1705.818,1737.409l-13.81,0Z" style="fill:#d4d3d4;fill-rule:nonzero;"/><path d="M5290.89,2626.795l-1705.819,-1737.409l210.577,-214.475l6.905,7.031l-203.672,207.444l1705.819,1737.409l-13.81,0Z" style="fill:#d4d3d4;fill-rule:nonzero;"/><path d="M5067.617,2626.795l-1705.819,-1737.409l322.215,-328.182l6.905,7.035l-315.31,321.147l1705.819,1737.409l-13.81,0Z" style="fill:#d4d3d4;fill-rule:nonzero;"/><path d="M4844.343,2626.795l-1705.819,-1737.409l433.851,-441.882l6.905,7.031l-426.946,434.851l1705.819,1737.409l-13.81,0Z" style="fill:#d4d3d4;fill-rule:nonzero;"/><path d="M4621.069,2626.795l-1705.819,-1737.409l545.489,-555.589l6.905,7.031l-538.584,548.558l1705.818,1737.409l-13.809,0Z" style="fill:#d4d3d4;fill-rule:nonzero;"/><path d="M4397.795,2626.795l-1705.819,-1737.409l657.125,-669.292l6.905,7.035l-650.22,662.258l1705.819,1737.409l-13.81,0Z" style="fill:#d4d3d4;fill-rule:nonzero;"/><path d="M4174.521,2626.795l-1666.913,-1697.777l13.814,0l1666.91,1697.777l-13.81,0Zm-2465.946,-961.595l760.892,-774.981l0.209,-1.761l-1705.054,-1736.631l13.81,0l1698.12,1729.565l760.912,-775.002l6.905,7.031l-722.636,736.018l-38.302,39.015l-767.952,783.777l-6.905,-7.031Z" style="fill:#d4d3d4;fill-rule:nonzero;"/><path d="M7260.102,2626.795l-1699.173,-1730.638l-761.797,775.903l-6.905,-7.031l722.797,-736.179l808.022,-822.459l6.905,7.031l-761.858,775.965l1705.819,1737.409l-13.81,0Zm-1745.077,-1777.523l-1666.752,-1697.616l13.81,0l1666.752,1697.616l-13.81,0Z" style="fill:#d4d3d4;fill-rule:nonzero;"/><path d="M5291.748,849.269l-1666.747,-1697.613l13.809,0l1666.747,1697.613l-13.809,0Z" style="fill:#d4d3d4;fill-rule:nonzero;"/><path d="M5068.474,849.269l-1666.747,-1697.613l13.809,0l1666.747,1697.613l-13.809,0Z" style="fill:#d4d3d4;fill-rule:nonzero;"/><path d="M4845.2,849.269l-1666.747,-1697.613l13.809,0l1666.747,1697.613l-13.809,0Z" style="fill:#d4d3d4;fill-rule:nonzero;"/><path d="M4621.927,849.269l-1666.747,-1697.613l13.809,0l1666.747,1697.613l-13.809,0Z" style="fill:#d4d3d4;fill-rule:nonzero;"/><path d="M4398.653,849.269l-1666.747,-1697.613l13.809,0l1666.747,1697.613l-13.809,0Z" style="fill:#d4d3d4;fill-rule:nonzero;"/><path d="M7260.96,849.269l-1666.75,-1697.613l13.812,0l1666.749,1697.613l-13.81,0Zm-2465.521,-965.254l719.043,-732.358l13.805,0l-725.943,739.389l-6.905,-7.031Z" style="fill:#d4d3d4;fill-rule:nonzero;"/><path d="M3847.944,2626.795l56.128,-57.169l6.905,7.035l-49.222,50.134l-13.81,0Z" style="fill:#d4d3d4;fill-rule:nonzero;"/><path d="M3624.672,2626.795l167.764,-170.869l6.905,7.031l-160.86,163.837l-13.809,0Z" style="fill:#d4d3d4;fill-rule:nonzero;"/><path d="M4680.589,1551.322l611.159,-622.472l13.809,0l-618.063,629.507l-6.905,-7.035Z" style="fill:#d4d3d4;fill-rule:nonzero;"/><path d="M3401.398,2626.795l279.4,-284.576l6.905,7.031l-272.496,277.544l-13.809,0Z" style="fill:#d4d3d4;fill-rule:nonzero;"/><path d="M4568.953,1437.619l499.521,-508.768l13.81,0l-506.427,515.803l-6.905,-7.035Z" style="fill:#d4d3d4;fill-rule:nonzero;"/><path d="M3178.124,2626.795l391.038,-398.279l6.905,7.035l-384.132,391.244l-13.81,0Z" style="fill:#d4d3d4;fill-rule:nonzero;"/><path d="M4457.315,1323.915l387.885,-395.065l13.809,0l-394.789,402.096l-6.905,-7.031Z" style="fill:#d4d3d4;fill-rule:nonzero;"/><path d="M4345.679,1210.208l276.248,-281.358l13.809,0l-283.151,288.393l-6.905,-7.035Z" style="fill:#d4d3d4;fill-rule:nonzero;"/><path d="M2954.85,2626.795l502.674,-511.983l6.905,7.031l-495.769,504.951l-13.81,0Z" style="fill:#d4d3d4;fill-rule:nonzero;"/><path d="M4234.041,1096.508l164.611,-167.658l13.809,0l-171.515,174.689l-6.905,-7.031Z" style="fill:#d4d3d4;fill-rule:nonzero;"/><path d="M2731.576,2626.795l614.312,-625.689l6.905,7.035l-607.406,618.655l-13.81,0Z" style="fill:#d4d3d4;fill-rule:nonzero;"/><path d="M4122.405,982.801l52.974,-53.951l13.809,0l-59.877,60.982l-6.905,-7.031Z" style="fill:#d4d3d4;fill-rule:nonzero;"/><path d="M5291.427,6181.677l-1705.818,-1737.409l210.577,-214.475l6.905,7.031l-203.672,207.444l1705.818,1737.409l-13.81,0Z" style="fill:#d4d3d4;fill-rule:nonzero;"/><path d="M5068.153,6181.677l-1705.818,-1737.409l322.213,-328.182l6.905,7.035l-315.308,321.147l1705.818,1737.409l-13.81,0Z" style="fill:#d4d3d4;fill-rule:nonzero;"/><path d="M4844.879,6181.677l-1705.818,-1737.409l433.851,-441.885l6.905,7.035l-426.946,434.851l1705.818,1737.409l-13.81,0Z" style="fill:#d4d3d4;fill-rule:nonzero;"/><path d="M4621.605,6181.677l-1705.818,-1737.409l545.487,-555.589l6.905,7.031l-538.582,548.558l1705.818,1737.409l-13.81,0Z" style="fill:#d4d3d4;fill-rule:nonzero;"/><path d="M4398.331,6181.677l-1705.818,-1737.409l657.125,-669.296l6.905,7.035l-650.22,662.261l1705.818,1737.409l-13.81,0Z" style="fill:#d4d3d4;fill-rule:nonzero;"/><path d="M5292.287,4404.147l-1666.749,-1697.609l13.809,0l1666.749,1697.609l-13.809,0Z" style="fill:#d4d3d4;fill-rule:nonzero;"/><path d="M5069.013,4404.147l-1666.749,-1697.609l13.809,0l1666.749,1697.609l-13.809,0Z" style="fill:#d4d3d4;fill-rule:nonzero;"/><path d="M4845.739,4404.147l-1666.749,-1697.609l13.809,0l1666.749,1697.609l-13.809,0Z" style="fill:#d4d3d4;fill-rule:nonzero;"/><path d="M4622.465,4404.147l-1666.749,-1697.609l13.809,0l1666.749,1697.609l-13.809,0Z" style="fill:#d4d3d4;fill-rule:nonzero;"/><path d="M4399.191,4404.147l-1666.749,-1697.609l13.809,0l1666.749,1697.609l-13.809,0Z" style="fill:#d4d3d4;fill-rule:nonzero;"/><path d="M4175.917,4404.147l-1699.015,-1730.473l-758.209,772.254l-6.905,-7.031l796.345,-811.93l726.118,-739.564l6.905,7.035l-757.915,771.949l39.115,40.152l0.624,0l1666.749,1697.609l-13.81,0Zm-1745.403,-1777.181l-1705.819,-1737.409l98.939,-100.772l6.905,7.035l-92.034,93.737l1705.818,1737.409l-13.809,0Z" style="fill:#d4d3d4;fill-rule:nonzero;"/><path d="M4126.156,2756.669l49.221,-50.131l13.812,0l-56.128,57.165l-6.905,-7.035Z" style="fill:#d4d3d4;fill-rule:nonzero;"/><path d="M4237.792,2870.376l160.86,-163.837l13.809,0l-167.764,170.869l-6.905,-7.031Z" style="fill:#d4d3d4;fill-rule:nonzero;"/><path d="M4349.43,2984.079l272.496,-277.541l13.809,0l-279.4,284.572l-6.905,-7.031Z" style="fill:#d4d3d4;fill-rule:nonzero;"/><path d="M4461.066,3097.782l384.134,-391.244l13.809,0l-391.038,398.276l-6.905,-7.031Z" style="fill:#d4d3d4;fill-rule:nonzero;"/><path d="M4572.704,3211.486l495.77,-504.948l13.81,0l-502.675,511.983l-6.905,-7.035Z" style="fill:#d4d3d4;fill-rule:nonzero;"/><path d="M4684.34,3325.189l607.408,-618.651l13.809,0l-614.312,625.686l-6.905,-7.035Z" style="fill:#d4d3d4;fill-rule:nonzero;"/><path d="M4681.127,5106.204l611.159,-622.475l13.809,0l-618.063,629.507l-6.905,-7.031Z" style="fill:#d4d3d4;fill-rule:nonzero;"/><path d="M4569.49,4992.501l499.523,-508.772l13.81,0l-506.428,515.807l-6.905,-7.035Z" style="fill:#d4d3d4;fill-rule:nonzero;"/><path d="M4457.853,4878.797l387.885,-395.068l13.81,0l-394.79,402.1l-6.905,-7.031Z" style="fill:#d4d3d4;fill-rule:nonzero;"/><path d="M4346.216,4765.09l276.249,-281.361l13.81,0l-283.154,288.396l-6.905,-7.035Z" style="fill:#d4d3d4;fill-rule:nonzero;"/><path d="M4234.58,4651.387l164.611,-167.658l13.81,0l-171.517,174.693l-6.905,-7.035Z" style="fill:#d4d3d4;fill-rule:nonzero;"/><path d="M2508.835,6181.677l725.953,-739.393l6.905,7.031l-719.044,732.362l-13.814,0Zm-78.325,0l-1705.816,-1737.409l98.939,-100.772l6.905,7.035l-92.034,93.737l1705.821,1737.409l-13.815,0Z" style="fill:#d4d3d4;fill-rule:nonzero;"/><path d="M4122.942,4537.684l52.975,-53.955l13.809,0l-59.879,60.986l-6.905,-7.031Z" style="fill:#d4d3d4;fill-rule:nonzero;"/><path d="M1911.084,64.919l63.929,-65.115l-63.551,-64.728l6.905,-7.031l70.456,71.759l-70.834,72.146l-6.905,-7.031Z" style="fill:#d4d3d4;fill-rule:nonzero;"/><path d="M2022.72,178.623l175.567,-178.818l-175.189,-178.435l6.907,-7.031l182.092,185.466l-182.472,185.85l-6.905,-7.031Z" style="fill:#d4d3d4;fill-rule:nonzero;"/><path d="M2134.358,292.326l287.203,-292.522l-286.825,-292.135l6.905,-7.035l293.73,299.169l-294.108,299.557l-6.905,-7.035Z" style="fill:#d4d3d4;fill-rule:nonzero;"/><path d="M2245.994,406.03l398.841,-406.225l-398.461,-405.841l6.903,-7.031l405.368,412.873l-405.746,413.26l-6.905,-7.035Z" style="fill:#d4d3d4;fill-rule:nonzero;"/><path d="M2357.632,519.736l510.477,-519.932l-510.099,-519.545l6.905,-7.035l517.004,526.58l-517.382,526.963l-6.905,-7.031Z" style="fill:#d4d3d4;fill-rule:nonzero;"/><path d="M2469.268,633.44l622.115,-633.636l-621.736,-633.248l6.907,-7.035l628.64,640.283l-629.02,640.67l-6.905,-7.035Z" style="fill:#d4d3d4;fill-rule:nonzero;"/><path d="M1895.634,1855.916l63.929,-65.115l-63.551,-64.728l6.905,-7.035l70.456,71.762l-70.836,72.146l-6.903,-7.031Z" style="fill:#d4d3d4;fill-rule:nonzero;"/><path d="M2453.818,2424.436l622.115,-633.636l-621.736,-633.252l6.905,-7.031l628.642,640.283l-629.02,640.667l-6.905,-7.031Z" style="fill:#d4d3d4;fill-rule:nonzero;"/><path d="M2007.27,1969.619l175.567,-178.818l-175.189,-178.431l6.905,-7.035l182.094,185.466l-182.472,185.853l-6.905,-7.035Z" style="fill:#d4d3d4;fill-rule:nonzero;"/><path d="M2118.906,2083.323l287.205,-292.522l-286.825,-292.138l6.905,-7.031l293.73,299.169l-294.108,299.557l-6.907,-7.035Z" style="fill:#d4d3d4;fill-rule:nonzero;"/><path d="M2230.544,2197.03l398.841,-406.229l-398.463,-405.841l6.905,-7.035l405.368,412.876l-405.746,413.26l-6.905,-7.031Z" style="fill:#d4d3d4;fill-rule:nonzero;"/><path d="M2342.182,2310.733l510.477,-519.932l-510.099,-519.545l6.905,-7.031l517.004,526.576l-517.384,526.963l-6.903,-7.031Z" style="fill:#d4d3d4;fill-rule:nonzero;"/><path d="M2958.071,3548.245l70.456,-71.762l6.905,7.035l-63.554,64.728l63.933,65.111l-6.905,7.035l-70.834,-72.146Z" style="fill:#d4d3d4;fill-rule:nonzero;"/><path d="M2734.797,3548.245l182.092,-185.466l6.905,7.031l-175.189,178.435l175.567,178.818l-6.905,7.031l-182.471,-185.85Z" style="fill:#d4d3d4;fill-rule:nonzero;"/><path d="M2511.523,3548.245l293.73,-299.173l6.905,7.035l-286.825,292.138l287.203,292.522l-6.905,7.035l-294.108,-299.557Z" style="fill:#d4d3d4;fill-rule:nonzero;"/><path d="M2288.249,3548.245l405.366,-412.873l6.905,7.031l-398.461,405.841l398.839,406.225l-6.903,7.035l-405.746,-413.26Z" style="fill:#d4d3d4;fill-rule:nonzero;"/><path d="M2064.976,3548.245l517.004,-526.58l6.905,7.031l-510.099,519.548l510.477,519.932l-6.905,7.031l-517.382,-526.963Z" style="fill:#d4d3d4;fill-rule:nonzero;"/><path d="M1841.7,3548.245l628.642,-640.283l6.905,7.035l-621.736,633.248l622.117,633.636l-6.907,7.035l-629.02,-640.67Z" style="fill:#d4d3d4;fill-rule:nonzero;"/><path d="M2973.522,5339.241l70.456,-71.762l6.905,7.035l-63.551,64.728l63.929,65.115l-6.905,7.031l-70.834,-72.146Z" style="fill:#d4d3d4;fill-rule:nonzero;"/><path d="M2750.248,5339.241l182.092,-185.466l6.907,7.035l-175.189,178.431l175.567,178.818l-6.905,7.031l-182.472,-185.85Z" style="fill:#d4d3d4;fill-rule:nonzero;"/><path d="M2526.974,5339.241l293.73,-299.169l6.905,7.031l-286.825,292.138l287.203,292.522l-6.905,7.035l-294.108,-299.557Z" style="fill:#d4d3d4;fill-rule:nonzero;"/><path d="M2303.7,5339.241l405.368,-412.876l6.903,7.035l-398.461,405.841l398.841,406.225l-6.905,7.035l-405.746,-413.26Z" style="fill:#d4d3d4;fill-rule:nonzero;"/><path d="M2080.426,5339.241l517.004,-526.58l6.905,7.035l-510.099,519.545l510.477,519.932l-6.905,7.031l-517.382,-526.963Z" style="fill:#d4d3d4;fill-rule:nonzero;"/><path d="M1857.15,5339.241l628.642,-640.283l6.907,7.031l-621.736,633.252l622.115,633.636l-6.905,7.031l-629.022,-640.667Z" style="fill:#d4d3d4;fill-rule:nonzero;"/><path d="M8599.743,2626.795l-1705.816,-1737.409l98.941,-100.772l6.905,7.035l-92.036,93.737l1705.816,1737.409l-13.81,0Z" style="fill:#d4d3d4;fill-rule:nonzero;"/><path d="M8376.47,2626.795l-1705.818,-1737.409l210.577,-214.475l6.905,7.031l-203.672,207.444l1705.818,1737.409l-13.81,0Z" style="fill:#d4d3d4;fill-rule:nonzero;"/><path d="M8153.195,2626.795l-1705.816,-1737.409l322.215,-328.182l6.905,7.035l-315.31,321.147l1705.816,1737.409l-13.81,0Z" style="fill:#d4d3d4;fill-rule:nonzero;"/><path d="M7929.924,2626.795l-1705.819,-1737.409l433.851,-441.882l6.905,7.031l-426.946,434.851l1705.819,1737.409l-13.81,0Z" style="fill:#d4d3d4;fill-rule:nonzero;"/><path d="M7706.65,2626.795l-1705.819,-1737.409l545.489,-555.589l6.905,7.031l-538.584,548.558l1705.818,1737.409l-13.809,0Z" style="fill:#d4d3d4;fill-rule:nonzero;"/><path d="M7483.376,2626.795l-1705.819,-1737.409l657.125,-669.292l6.905,7.035l-650.22,662.258l1705.819,1737.409l-13.81,0Z" style="fill:#d4d3d4;fill-rule:nonzero;"/><path d="M8600.604,849.269l-1666.747,-1697.613l13.809,0l1666.749,1697.613l-13.81,0Z" style="fill:#d4d3d4;fill-rule:nonzero;"/><path d="M8377.328,849.269l-1666.745,-1697.613l13.809,0l1666.747,1697.613l-13.81,0Z" style="fill:#d4d3d4;fill-rule:nonzero;"/><path d="M8154.056,849.269l-1666.747,-1697.613l13.809,0l1666.749,1697.613l-13.81,0Z" style="fill:#d4d3d4;fill-rule:nonzero;"/><path d="M7930.782,849.269l-1666.747,-1697.613l13.809,0l1666.747,1697.613l-13.809,0Z" style="fill:#d4d3d4;fill-rule:nonzero;"/><path d="M7707.508,849.269l-1666.747,-1697.613l13.809,0l1666.747,1697.613l-13.809,0Z" style="fill:#d4d3d4;fill-rule:nonzero;"/><path d="M7484.234,849.269l-1666.747,-1697.613l13.809,0l1666.747,1697.613l-13.809,0Z" style="fill:#d4d3d4;fill-rule:nonzero;"/><path d="M6933.526,2626.795l56.128,-57.169l6.905,7.035l-49.222,50.134l-13.81,0Z" style="fill:#d4d3d4;fill-rule:nonzero;"/><path d="M7877.809,1665.029l722.795,-736.179l13.81,0l-729.7,743.21l-6.905,-7.031Z" style="fill:#d4d3d4;fill-rule:nonzero;"/><path d="M6710.253,2626.795l167.764,-170.869l6.905,7.031l-160.86,163.837l-13.809,0Z" style="fill:#d4d3d4;fill-rule:nonzero;"/><path d="M7766.171,1551.322l611.158,-622.472l13.81,0l-618.063,629.507l-6.905,-7.035Z" style="fill:#d4d3d4;fill-rule:nonzero;"/><path d="M6486.979,2626.795l279.4,-284.576l6.905,7.031l-272.496,277.544l-13.809,0Z" style="fill:#d4d3d4;fill-rule:nonzero;"/><path d="M7654.535,1437.619l499.521,-508.768l13.81,0l-506.427,515.803l-6.905,-7.035Z" style="fill:#d4d3d4;fill-rule:nonzero;"/><path d="M6263.706,2626.795l391.038,-398.279l6.905,7.035l-384.132,391.244l-13.81,0Z" style="fill:#d4d3d4;fill-rule:nonzero;"/><path d="M7542.897,1323.915l387.885,-395.065l13.809,0l-394.789,402.096l-6.905,-7.031Z" style="fill:#d4d3d4;fill-rule:nonzero;"/><path d="M7431.261,1210.208l276.248,-281.358l13.809,0l-283.151,288.393l-6.905,-7.035Z" style="fill:#d4d3d4;fill-rule:nonzero;"/><path d="M6040.432,2626.795l502.674,-511.983l6.905,7.031l-495.769,504.951l-13.81,0Z" style="fill:#d4d3d4;fill-rule:nonzero;"/><path d="M7319.623,1096.508l164.611,-167.658l13.809,0l-171.515,174.689l-6.905,-7.031Z" style="fill:#d4d3d4;fill-rule:nonzero;"/><path d="M5817.158,2626.795l614.312,-625.689l6.905,7.035l-607.406,618.655l-13.81,0Z" style="fill:#d4d3d4;fill-rule:nonzero;"/><path d="M7207.987,982.801l52.974,-53.951l13.809,0l-59.877,60.982l-6.905,-7.031Z" style="fill:#d4d3d4;fill-rule:nonzero;"/><path d="M8600.281,6181.677l-1705.816,-1737.409l98.939,-100.772l6.905,7.035l-92.034,93.737l1705.816,1737.409l-13.81,0Z" style="fill:#d4d3d4;fill-rule:nonzero;"/><path d="M8377.009,6181.677l-1705.818,-1737.409l210.577,-214.475l6.905,7.031l-203.672,207.444l1705.818,1737.409l-13.81,0Z" style="fill:#d4d3d4;fill-rule:nonzero;"/><path d="M8153.733,6181.677l-1705.816,-1737.409l322.213,-328.182l6.905,7.035l-315.308,321.147l1705.816,1737.409l-13.81,0Z" style="fill:#d4d3d4;fill-rule:nonzero;"/><path d="M7930.461,6181.677l-1705.818,-1737.409l433.851,-441.885l6.905,7.035l-426.946,434.851l1705.818,1737.409l-13.81,0Z" style="fill:#d4d3d4;fill-rule:nonzero;"/><path d="M7707.187,6181.677l-1705.818,-1737.409l545.487,-555.589l6.905,7.031l-538.582,548.558l1705.818,1737.409l-13.81,0Z" style="fill:#d4d3d4;fill-rule:nonzero;"/><path d="M7483.913,6181.677l-1705.818,-1737.409l657.125,-669.296l6.905,7.035l-650.22,662.261l1705.818,1737.409l-13.81,0Z" style="fill:#d4d3d4;fill-rule:nonzero;"/><path d="M7260.639,6181.677l-1699.173,-1730.641l-761.797,775.906l-6.905,-7.035l1530.819,-1558.635l6.905,7.031l-761.856,775.965l1705.818,1737.409l-13.81,0Zm-1745.077,-1777.527l-1666.752,-1697.613l13.81,0l1666.75,1697.613l-13.809,0Z" style="fill:#d4d3d4;fill-rule:nonzero;"/><path d="M8601.142,4404.147l-1666.749,-1697.609l13.809,0l1666.747,1697.609l-13.807,0Z" style="fill:#d4d3d4;fill-rule:nonzero;"/><path d="M8377.867,4404.147l-1666.747,-1697.609l13.809,0l1666.749,1697.609l-13.81,0Z" style="fill:#d4d3d4;fill-rule:nonzero;"/><path d="M8154.591,4404.147l-1666.745,-1697.609l13.809,0l1666.747,1697.609l-13.81,0Z" style="fill:#d4d3d4;fill-rule:nonzero;"/><path d="M7931.32,4404.147l-1666.749,-1697.609l13.809,0l1666.749,1697.609l-13.809,0Z" style="fill:#d4d3d4;fill-rule:nonzero;"/><path d="M7708.046,4404.147l-1666.749,-1697.609l13.809,0l1666.749,1697.609l-13.809,0Z" style="fill:#d4d3d4;fill-rule:nonzero;"/><path d="M7484.773,4404.147l-1666.749,-1697.609l13.809,0l1666.749,1697.609l-13.809,0Z" style="fill:#d4d3d4;fill-rule:nonzero;"/><path d="M7261.499,4404.147l-1666.75,-1697.609l13.812,0l1666.749,1697.609l-13.81,0Zm-2465.521,-965.251l719.043,-732.358l13.805,0l-725.943,739.389l-6.905,-7.031Z" style="fill:#d4d3d4;fill-rule:nonzero;"/><path d="M7211.738,2756.669l49.221,-50.131l13.812,0l-56.128,57.165l-6.905,-7.035Z" style="fill:#d4d3d4;fill-rule:nonzero;"/><path d="M7323.374,2870.376l160.86,-163.837l13.809,0l-167.764,170.869l-6.905,-7.031Z" style="fill:#d4d3d4;fill-rule:nonzero;"/><path d="M7435.012,2984.079l272.496,-277.541l13.809,0l-279.4,284.572l-6.905,-7.031Z" style="fill:#d4d3d4;fill-rule:nonzero;"/><path d="M7546.648,3097.782l384.134,-391.244l13.809,0l-391.038,398.276l-6.905,-7.031Z" style="fill:#d4d3d4;fill-rule:nonzero;"/><path d="M7658.286,3211.486l495.767,-504.948l13.81,0l-502.672,511.983l-6.905,-7.035Z" style="fill:#d4d3d4;fill-rule:nonzero;"/><path d="M7769.922,3325.189l607.406,-618.651l13.81,0l-614.312,625.686l-6.905,-7.035Z" style="fill:#d4d3d4;fill-rule:nonzero;"/><path d="M7881.56,3438.896l719.041,-732.358l13.804,0l-725.939,739.389l-6.905,-7.031Z" style="fill:#d4d3d4;fill-rule:nonzero;"/><path d="M7878.345,5219.908l722.797,-736.179l13.807,0l-729.699,743.213l-6.905,-7.035Z" style="fill:#d4d3d4;fill-rule:nonzero;"/><path d="M7766.709,5106.204l611.158,-622.475l13.81,0l-618.063,629.507l-6.905,-7.031Z" style="fill:#d4d3d4;fill-rule:nonzero;"/><path d="M7655.071,4992.501l499.52,-508.772l13.81,0l-506.425,515.807l-6.905,-7.035Z" style="fill:#d4d3d4;fill-rule:nonzero;"/><path d="M7543.435,4878.797l387.885,-395.068l13.81,0l-394.79,402.1l-6.905,-7.031Z" style="fill:#d4d3d4;fill-rule:nonzero;"/><path d="M7431.797,4765.09l276.249,-281.361l13.81,0l-283.154,288.396l-6.905,-7.035Z" style="fill:#d4d3d4;fill-rule:nonzero;"/><path d="M7320.161,4651.387l164.611,-167.658l13.81,0l-171.517,174.693l-6.905,-7.035Z" style="fill:#d4d3d4;fill-rule:nonzero;"/><path d="M5594.417,6181.677l725.953,-739.393l6.905,7.031l-719.044,732.362l-13.814,0Zm-79.716,0l-1705.818,-1737.409l98.939,-100.772l6.905,7.035l-92.034,93.737l1705.821,1737.409l-13.814,0Z" style="fill:#d4d3d4;fill-rule:nonzero;"/><path d="M7208.523,4537.684l52.975,-53.955l13.809,0l-59.879,60.986l-6.905,-7.031Z" style="fill:#d4d3d4;fill-rule:nonzero;"/><path d="M4996.666,64.919l63.929,-65.115l-63.551,-64.728l6.905,-7.031l70.456,71.759l-70.834,72.146l-6.905,-7.031Z" style="fill:#d4d3d4;fill-rule:nonzero;"/><path d="M5108.302,178.623l175.567,-178.818l-175.189,-178.435l6.905,-7.031l182.094,185.466l-182.472,185.85l-6.905,-7.031Z" style="fill:#d4d3d4;fill-rule:nonzero;"/><path d="M5219.94,292.326l287.203,-292.522l-286.825,-292.135l6.905,-7.035l293.73,299.169l-294.108,299.557l-6.905,-7.035Z" style="fill:#d4d3d4;fill-rule:nonzero;"/><path d="M5331.576,406.03l398.841,-406.225l-398.463,-405.841l6.905,-7.031l405.368,412.873l-405.746,413.26l-6.905,-7.035Z" style="fill:#d4d3d4;fill-rule:nonzero;"/><path d="M5443.214,519.736l510.477,-519.932l-510.099,-519.545l6.905,-7.035l517.004,526.58l-517.382,526.963l-6.905,-7.031Z" style="fill:#d4d3d4;fill-rule:nonzero;"/><path d="M5554.85,633.44l622.115,-633.636l-621.736,-633.248l6.905,-7.035l628.642,640.283l-629.02,640.67l-6.905,-7.035Z" style="fill:#d4d3d4;fill-rule:nonzero;"/><path d="M4981.216,1855.916l63.929,-65.115l-63.551,-64.728l6.905,-7.035l70.456,71.762l-70.836,72.146l-6.903,-7.031Z" style="fill:#d4d3d4;fill-rule:nonzero;"/><path d="M5539.4,2424.436l622.115,-633.636l-621.736,-633.252l6.905,-7.031l628.642,640.283l-629.02,640.667l-6.905,-7.031Z" style="fill:#d4d3d4;fill-rule:nonzero;"/><path d="M5092.852,1969.619l175.567,-178.818l-175.189,-178.431l6.905,-7.035l182.094,185.466l-182.472,185.853l-6.905,-7.035Z" style="fill:#d4d3d4;fill-rule:nonzero;"/><path d="M5204.488,2083.323l287.205,-292.522l-286.825,-292.138l6.905,-7.031l293.73,299.169l-294.108,299.557l-6.907,-7.035Z" style="fill:#d4d3d4;fill-rule:nonzero;"/><path d="M5316.126,2197.03l398.841,-406.229l-398.463,-405.841l6.905,-7.035l405.368,412.876l-405.746,413.26l-6.905,-7.031Z" style="fill:#d4d3d4;fill-rule:nonzero;"/><path d="M5427.764,2310.733l510.477,-519.932l-510.099,-519.545l6.905,-7.031l517.004,526.576l-517.384,526.963l-6.903,-7.031Z" style="fill:#d4d3d4;fill-rule:nonzero;"/><path d="M6043.653,3548.245l70.456,-71.762l6.905,7.035l-63.554,64.728l63.933,65.111l-6.905,7.035l-70.834,-72.146Z" style="fill:#d4d3d4;fill-rule:nonzero;"/><path d="M5820.379,3548.245l182.092,-185.466l6.905,7.031l-175.189,178.435l175.567,178.818l-6.905,7.031l-182.471,-185.85Z" style="fill:#d4d3d4;fill-rule:nonzero;"/><path d="M5597.105,3548.245l293.73,-299.173l6.905,7.035l-286.825,292.138l287.203,292.522l-6.905,7.035l-294.108,-299.557Z" style="fill:#d4d3d4;fill-rule:nonzero;"/><path d="M5373.831,3548.245l405.366,-412.873l6.905,7.031l-398.461,405.841l398.839,406.225l-6.905,7.035l-405.744,-413.26Z" style="fill:#d4d3d4;fill-rule:nonzero;"/><path d="M5150.557,3548.245l517.004,-526.58l6.905,7.031l-510.099,519.548l510.477,519.932l-6.905,7.031l-517.382,-526.963Z" style="fill:#d4d3d4;fill-rule:nonzero;"/><path d="M4927.282,3548.245l628.642,-640.283l6.905,7.035l-621.736,633.248l622.115,633.636l-6.905,7.035l-629.02,-640.67Z" style="fill:#d4d3d4;fill-rule:nonzero;"/><path d="M6059.103,5339.241l70.456,-71.762l6.905,7.035l-63.551,64.728l63.929,65.115l-6.905,7.031l-70.834,-72.146Z" style="fill:#d4d3d4;fill-rule:nonzero;"/><path d="M5835.829,5339.241l182.092,-185.466l6.905,7.035l-175.189,178.431l175.569,178.818l-6.905,7.031l-182.472,-185.85Z" style="fill:#d4d3d4;fill-rule:nonzero;"/><path d="M5612.555,5339.241l293.73,-299.169l6.905,7.031l-286.825,292.138l287.203,292.522l-6.905,7.035l-294.108,-299.557Z" style="fill:#d4d3d4;fill-rule:nonzero;"/><path d="M5389.281,5339.241l405.366,-412.876l6.905,7.035l-398.461,405.841l398.841,406.225l-6.905,7.035l-405.746,-413.26Z" style="fill:#d4d3d4;fill-rule:nonzero;"/><path d="M5166.008,5339.241l517.004,-526.58l6.905,7.035l-510.099,519.545l510.477,519.932l-6.905,7.031l-517.382,-526.963Z" style="fill:#d4d3d4;fill-rule:nonzero;"/><path d="M4942.732,5339.241l628.642,-640.283l6.905,7.031l-621.735,633.252l622.115,633.636l-6.905,7.031l-629.022,-640.667Z" style="fill:#d4d3d4;fill-rule:nonzero;"/></g></svg>